<?xml version="1.0" standalone="no"?>
<!DOCTYPE svg PUBLIC "-//W3C//DTD SVG 20010904//EN"
 "http://www.w3.org/TR/2001/REC-SVG-20010904/DTD/svg10.dtd">
<svg version="1.0" xmlns="http://www.w3.org/2000/svg"
 width="1024.000000pt" height="1536.000000pt" viewBox="0 0 1024.000000 1536.000000"
 preserveAspectRatio="xMidYMid meet">

<g transform="translate(0.000000,1536.000000) scale(0.100000,-0.100000)"
fill="#000000" stroke="none">
<path d="M4190 12779 c-300 -34 -624 -150 -877 -314 l-101 -66 -48 31 c-153
97 -319 102 -503 15 -202 -96 -321 -214 -804 -794 -432 -518 -518 -683 -504
-965 10 -205 44 -338 118 -463 35 -57 182 -217 209 -226 12 -4 11 -8 -7 -21
-13 -9 -43 -45 -68 -80 -154 -216 -209 -539 -145 -839 73 -335 335 -638 617
-711 76 -20 219 -20 298 -1 33 8 63 14 66 15 3 0 21 -30 40 -66 36 -72 142
-192 218 -248 68 -50 194 -113 274 -137 90 -27 259 -49 380 -49 91 0 97 -1 88
-18 -15 -28 -117 -386 -171 -601 -51 -202 -90 -399 -111 -556 -14 -107 -14
-424 0 -516 34 -226 38 -859 6 -1179 -16 -164 -56 -427 -79 -520 -8 -30 -17
-67 -20 -82 -5 -24 -12 -28 -40 -28 -75 0 -214 -32 -298 -69 -191 -85 -319
-200 -394 -356 -139 -288 -26 -524 288 -604 118 -30 308 -45 507 -38 193 6
308 23 472 66 l108 29 26 -53 c45 -94 125 -143 281 -174 297 -59 764 -50 992
21 208 64 297 155 386 394 28 75 57 136 70 146 20 17 21 18 1 18 -16 0 -14 3
9 15 16 9 30 14 31 13 2 -2 -2 -34 -7 -73 -5 -38 -8 -113 -6 -166 3 -84 8
-104 36 -162 85 -172 268 -227 752 -227 397 0 1033 104 1329 218 161 62 252
176 251 314 -1 82 -11 108 -89 233 -14 21 -12 26 25 67 21 25 59 80 84 122 25
42 52 78 60 81 8 2 55 11 105 20 206 38 472 152 655 282 121 87 334 299 430
430 172 236 260 448 207 500 -14 14 -22 15 -54 5 -20 -6 -39 -10 -41 -8 -2 2
8 27 22 54 99 195 176 493 189 732 6 109 -9 313 -33 432 -70 352 -252 692
-494 925 -125 121 -197 165 -275 171 -76 6 -94 -14 -99 -108 -4 -62 0 -79 47
-204 59 -156 102 -318 128 -479 25 -159 25 -518 0 -677 -51 -322 -180 -671
-330 -889 -29 -42 -101 -125 -162 -186 l-110 -110 -7 65 c-3 36 -11 133 -17
215 -28 383 -143 686 -401 1050 -178 251 -321 403 -819 869 -389 364 -484 460
-585 590 -134 172 -246 403 -300 621 -71 282 -64 395 43 683 33 86 65 182 72
212 7 30 14 56 15 58 0 1 23 -9 50 -23 116 -59 285 -75 429 -40 115 27 277
113 421 221 342 256 608 538 760 804 116 202 150 426 99 637 -57 232 -347 639
-745 1047 -287 294 -489 425 -747 487 -74 18 -109 20 -223 17 -119 -4 -147 -9
-233 -38 -53 -18 -130 -52 -170 -76 -59 -36 -75 -41 -88 -31 -9 7 -38 29 -65
49 -64 48 -225 128 -338 167 -319 112 -769 166 -1086 130z m375 -169 c315 -27
615 -100 810 -197 64 -33 185 -112 185 -123 0 -4 -16 -34 -35 -66 -37 -62 -44
-91 -21 -100 19 -7 42 6 145 82 100 75 260 157 346 178 279 67 551 -23 846
-279 215 -187 440 -441 642 -723 183 -256 247 -402 247 -564 0 -94 -14 -146
-70 -263 -101 -208 -245 -399 -456 -606 -361 -351 -616 -477 -835 -413 -186
55 -289 176 -353 414 -60 224 -60 230 -61 810 -1 510 -2 540 -23 635 -27 127
-57 218 -89 272 -29 50 -86 103 -111 103 -26 0 -62 -29 -62 -50 0 -10 21 -74
46 -142 25 -67 52 -152 60 -188 22 -100 34 -305 26 -437 -12 -201 -8 -728 6
-843 28 -221 77 -382 151 -494 l39 -59 -20 -71 c-68 -248 -155 -464 -236 -582
-21 -33 -85 -117 -141 -188 -56 -71 -101 -136 -99 -144 2 -8 10 -20 20 -25 24
-15 113 41 209 133 l79 75 0 -50 c0 -113 36 -312 79 -437 52 -152 156 -344
266 -493 78 -105 221 -250 645 -655 449 -428 601 -591 770 -825 135 -187 236
-384 300 -583 135 -418 132 -917 -7 -1316 -59 -169 -97 -231 -215 -352 -90
-92 -90 -93 -21 -177 86 -104 114 -206 74 -271 -26 -41 -98 -85 -191 -115
-230 -74 -729 -162 -1058 -186 l-92 -7 -20 43 c-43 96 -16 208 80 322 32 40
38 52 30 68 -31 57 -146 -34 -213 -170 -29 -60 -32 -73 -32 -163 l0 -98 -36 0
c-20 0 -71 3 -114 7 l-77 6 -19 41 c-12 27 -19 65 -19 112 0 59 5 81 30 131
17 33 50 78 75 101 25 22 45 45 45 51 0 12 -29 41 -41 41 -45 0 -168 -123
-206 -207 -30 -66 -44 -195 -24 -231 15 -27 7 -28 -63 -1 -95 35 -124 89 -127
234 -4 168 44 247 195 320 133 65 224 86 391 92 173 6 268 -9 457 -72 147 -48
217 -57 256 -29 12 8 22 26 22 39 0 31 -43 54 -170 91 -344 99 -596 276 -707
499 -82 162 -115 439 -78 651 39 221 131 414 265 557 128 137 265 210 454 243
131 23 344 1 508 -52 36 -12 52 -13 67 -4 50 26 2 88 -114 145 -102 50 -173
66 -320 72 -117 4 -140 2 -230 -21 -342 -89 -593 -339 -720 -719 -97 -290 -99
-622 -4 -867 40 -104 119 -221 210 -311 l77 -76 -72 -6 c-147 -13 -350 -87
-467 -172 -47 -34 -79 -42 -113 -29 -26 10 -37 39 -26 69 6 14 26 115 45 223
20 108 42 224 50 257 47 201 107 667 124 965 13 233 5 370 -30 548 -8 40 -15
52 -29 52 -30 0 -35 -30 -55 -305 -52 -723 -123 -1210 -265 -1817 -104 -443
-183 -553 -438 -608 -98 -21 -349 -46 -360 -35 -4 4 -6 56 -5 115 3 118 18
177 62 244 38 59 40 69 23 89 -27 30 -62 21 -109 -29 -62 -67 -105 -202 -106
-333 l-1 -94 -100 6 c-56 4 -111 9 -123 13 -28 8 -38 52 -37 159 2 89 33 191
85 275 33 53 36 72 14 90 -39 32 -129 -53 -187 -176 -32 -67 -33 -73 -33 -196
0 -144 2 -140 -76 -113 -91 32 -126 94 -115 204 12 124 37 184 118 279 102
119 252 201 411 222 119 16 116 11 167 281 16 85 52 310 80 500 75 510 99 839
81 1103 -12 170 -23 197 -60 150 -44 -55 -49 -90 -82 -569 -20 -298 -84 -775
-103 -775 -18 0 -205 111 -297 176 -343 241 -611 567 -739 899 -72 188 -108
366 -117 580 -9 237 18 424 116 805 72 278 161 610 175 655 l13 40 89 12 c121
17 319 67 434 110 52 19 160 69 240 109 234 121 328 202 275 240 -26 19 -44
13 -275 -91 -330 -149 -488 -200 -747 -241 -133 -21 -424 -15 -543 11 -172 38
-327 121 -440 236 -52 53 -109 136 -98 143 26 19 100 56 110 56 7 0 40 -20 72
-44 183 -137 395 -203 681 -213 190 -6 305 9 463 62 270 91 506 261 680 490
72 96 146 245 168 341 10 43 19 80 20 82 1 2 28 -6 60 -17 70 -23 94 -16 94
30 0 72 -68 136 -182 170 -88 27 -194 24 -235 -7 -61 -46 -34 -87 68 -104 79
-14 81 -17 53 -111 -38 -130 -153 -297 -305 -444 -168 -162 -318 -247 -556
-312 -88 -25 -115 -27 -263 -27 -333 -1 -570 83 -751 263 -109 109 -168 247
-169 393 0 44 2 48 28 54 192 46 291 91 385 174 66 60 141 168 168 245 25 71
25 176 0 230 -38 84 -154 152 -338 198 -329 83 -697 46 -814 -80 -65 -70 -93
-182 -70 -281 19 -79 95 -198 180 -282 81 -81 171 -135 274 -165 31 -9 57 -17
58 -18 0 -1 2 -45 5 -97 7 -133 29 -232 69 -316 48 -100 47 -106 -25 -138
-256 -115 -513 -34 -707 223 -133 176 -175 315 -177 576 -1 154 0 164 32 270
18 61 47 134 65 164 43 73 127 163 201 216 202 143 406 192 756 182 198 -6
279 -18 507 -76 73 -19 104 -16 89 7 -3 5 -49 31 -103 57 -220 108 -379 147
-601 149 -90 1 -140 5 -138 11 71 157 96 255 151 587 63 382 99 506 200 708
99 196 214 349 392 521 176 169 400 301 658 387 263 87 496 115 770 92z
m-1550 -285 c17 -6 36 -20 44 -29 13 -15 4 -27 -85 -119 -124 -127 -165 -177
-243 -296 -187 -286 -270 -517 -330 -926 -66 -446 -102 -520 -324 -674 -56
-38 -129 -93 -162 -121 -87 -74 -95 -74 -167 -4 -79 79 -153 190 -178 270 -25
83 -60 282 -60 343 0 52 18 125 48 191 32 74 151 246 273 395 63 77 176 218
252 313 152 190 401 452 515 543 150 120 302 162 417 114z m5824 -4922 c291
-288 442 -625 458 -1024 13 -315 -44 -588 -198 -962 -55 -131 -68 -172 -59
-182 18 -21 44 -27 75 -15 24 9 27 8 21 -7 -13 -35 -101 -175 -158 -251 -68
-90 -213 -240 -315 -323 -144 -119 -331 -210 -572 -279 -40 -12 -79 -24 -86
-26 -7 -3 -3 21 12 67 31 90 60 223 78 352 l14 99 101 96 c164 154 344 385
438 562 217 406 303 898 236 1350 -28 190 -69 340 -150 548 -24 62 -44 115
-44 117 0 19 36 -11 149 -122z m-5392 -1988 c115 -177 294 -377 476 -533 71
-60 87 -79 83 -96 -3 -11 -15 -84 -26 -161 -48 -318 -158 -788 -200 -855 -37
-58 -66 -134 -75 -192 l-7 -46 -82 -23 c-122 -33 -277 -58 -407 -65 l-117 -7
-11 52 c-25 116 -9 208 54 312 47 79 54 106 30 115 -47 18 -120 -52 -173 -166
-32 -69 -36 -85 -40 -189 l-5 -114 -115 6 c-79 4 -117 10 -123 19 -5 7 -9 61
-9 120 0 116 18 185 68 260 32 49 24 68 -28 68 -51 0 -81 -28 -116 -106 -35
-79 -54 -167 -54 -252 l0 -72 -39 19 c-85 44 -126 121 -119 229 4 59 13 88 46
156 56 112 137 189 265 250 117 56 164 67 312 75 l120 6 22 45 c28 56 65 240
97 480 31 235 45 401 53 663 l6 208 35 -68 c19 -37 55 -99 79 -138z m736 -718
c29 -18 93 -56 142 -85 50 -28 96 -55 102 -60 10 -6 8 -33 -7 -122 -16 -94
-49 -249 -54 -257 -1 -1 -34 -8 -73 -17 -79 -16 -171 -58 -246 -112 l-50 -36
7 27 c31 124 106 594 106 666 0 37 9 36 73 -4z"/>
<path d="M4485 11667 c-51 -23 -87 -74 -83 -116 l3 -36 90 0 c75 0 98 -4 139
-24 67 -33 156 -125 197 -202 25 -47 40 -65 57 -67 42 -6 55 16 49 82 -11 126
-122 281 -243 340 -69 34 -163 44 -209 23z"/>
<path d="M2990 11643 c-65 -24 -155 -119 -208 -220 -45 -86 -50 -118 -19 -137
15 -9 30 2 100 76 94 100 157 142 233 158 57 12 74 29 74 73 0 13 -8 31 -19
41 -27 24 -107 29 -161 9z"/>
<path d="M2949 10951 c-70 -58 -133 -238 -133 -382 0 -73 4 -94 27 -141 47
-96 120 -111 197 -42 98 89 151 368 94 502 -39 95 -115 120 -185 63z"/>
<path d="M4409 10907 c-45 -30 -105 -111 -128 -173 -50 -132 -45 -279 12 -394
87 -176 243 -139 310 74 18 59 22 94 22 206 0 156 -16 218 -70 275 -40 43 -93
48 -146 12z"/>
<path d="M3647 9092 c-20 -22 -22 -63 -5 -80 31 -31 98 0 98 46 0 47 -61 69
-93 34z"/>
<path d="M3335 8856 c-35 -53 18 -116 69 -83 33 22 41 52 22 82 -22 34 -70 34
-91 1z"/>
</g>
</svg>
