<?xml version="1.0" standalone="no"?>
<!DOCTYPE svg PUBLIC "-//W3C//DTD SVG 20010904//EN"
 "http://www.w3.org/TR/2001/REC-SVG-20010904/DTD/svg10.dtd">
<svg version="1.0" xmlns="http://www.w3.org/2000/svg"
 width="1536.000000pt" height="1024.000000pt" viewBox="0 0 1536.000000 1024.000000"
 preserveAspectRatio="xMidYMid meet">

<g transform="translate(0.000000,1024.000000) scale(0.100000,-0.100000)"
fill="#000000" stroke="none">
<path d="M5240 9670 c-239 -3 -1349 -7 -2466 -8 -1311 -1 -2051 -6 -2085 -12
-69 -13 -97 -32 -103 -72 -3 -18 -2 -332 3 -698 4 -366 8 -2367 9 -4447 1
-3648 2 -3823 28 -3823 3 0 2 5 -2 12 -4 7 -3 8 4 4 6 -4 9 -13 6 -21 -4 -10
4 -19 22 -26 22 -8 1477 -10 5679 -5 3108 4 5668 9 5690 11 22 2 621 6 1330
10 710 3 1300 8 1313 11 12 2 31 19 42 37 20 32 20 71 20 4107 0 2241 3 4249
6 4462 7 373 6 389 -12 409 -10 12 -32 28 -49 38 -28 15 -369 16 -4515 16
-2467 0 -4681 -2 -4920 -5z m9373 -8 c9 -4 -11 -8 -45 -8 -46 -1 -55 1 -33 6
39 10 56 10 78 2z m-8316 -8 c-3 -3 -12 -4 -19 -1 -8 3 -5 6 6 6 11 1 17 -2
13 -5z m1883 -4 c0 -5 -2 -10 -4 -10 -3 0 -8 5 -11 10 -3 6 -1 10 4 10 6 0 11
-4 11 -10z m430 6 c0 -2 -7 -6 -15 -10 -8 -3 -15 -1 -15 4 0 6 7 10 15 10 8 0
15 -2 15 -4z m313 -3 c-7 -2 -19 -2 -25 0 -7 3 -2 5 12 5 14 0 19 -2 13 -5z
m134 1 c-3 -3 -12 -4 -19 -1 -8 3 -5 6 6 6 11 1 17 -2 13 -5z m66 -1 c-7 -2
-19 -2 -25 0 -7 3 -2 5 12 5 14 0 19 -2 13 -5z m64 1 c-3 -3 -12 -4 -19 -1 -8
3 -5 6 6 6 11 1 17 -2 13 -5z m136 -1 c-7 -2 -19 -2 -25 0 -7 3 -2 5 12 5 14
0 19 -2 13 -5z m110 0 c-7 -2 -21 -2 -30 0 -10 3 -4 5 12 5 17 0 24 -2 18 -5z
m125 0 c-10 -2 -26 -2 -35 0 -10 3 -2 5 17 5 19 0 27 -2 18 -5z m49 1 c-3 -3
-12 -4 -19 -1 -8 3 -5 6 6 6 11 1 17 -2 13 -5z m50 0 c-3 -3 -12 -4 -19 -1 -8
3 -5 6 6 6 11 1 17 -2 13 -5z m181 -1 c-21 -2 -57 -2 -80 0 -24 2 -7 4 37 4
44 0 63 -2 43 -4z m135 0 c-7 -2 -21 -2 -30 0 -10 3 -4 5 12 5 17 0 24 -2 18
-5z m291 -9 c6 -15 4 -15 -11 -3 -10 7 -20 15 -22 16 -2 2 3 3 11 3 9 0 19 -7
22 -16z m54 9 c-10 -2 -26 -2 -35 0 -10 3 -2 5 17 5 19 0 27 -2 18 -5z m62 -1
c0 -4 -9 -8 -19 -8 -11 0 -17 4 -15 8 3 4 12 8 20 8 8 0 14 -4 14 -8z m80 -7
c7 -8 9 -15 6 -15 -4 0 -14 7 -22 15 -9 8 -11 15 -6 15 5 0 15 -7 22 -15z
m257 9 c-3 -3 -12 -4 -19 -1 -8 3 -5 6 6 6 11 1 17 -2 13 -5z m696 -1 c-7 -2
-21 -2 -30 0 -10 3 -4 5 12 5 17 0 24 -2 18 -5z m570 0 c-13 -2 -35 -2 -50 0
-16 2 -5 4 22 4 28 0 40 -2 28 -4z m350 0 c-13 -2 -33 -2 -45 0 -13 2 -3 4 22
4 25 0 35 -2 23 -4z m134 1 c-3 -3 -12 -4 -19 -1 -8 3 -5 6 6 6 11 1 17 -2 13
-5z m76 -1 c-7 -2 -19 -2 -25 0 -7 3 -2 5 12 5 14 0 19 -2 13 -5z m275 0 c-15
-2 -42 -2 -60 0 -18 2 -6 4 27 4 33 0 48 -2 33 -4z m149 1 c-3 -3 -12 -4 -19
-1 -8 3 -5 6 6 6 11 1 17 -2 13 -5z m301 -1 c-10 -2 -28 -2 -40 0 -13 2 -5 4
17 4 22 1 32 -1 23 -4z m135 0 c-7 -2 -19 -2 -25 0 -7 3 -2 5 12 5 14 0 19 -2
13 -5z m74 1 c-3 -3 -12 -4 -19 -1 -8 3 -5 6 6 6 11 1 17 -2 13 -5z m130 0
c-3 -3 -12 -4 -19 -1 -8 3 -5 6 6 6 11 1 17 -2 13 -5z m110 0 c-3 -3 -12 -4
-19 -1 -8 3 -5 6 6 6 11 1 17 -2 13 -5z m133 2 c0 -3 -4 -8 -10 -11 -5 -3 -10
-1 -10 4 0 6 5 11 10 11 6 0 10 -2 10 -4z m145 -6 c-3 -5 -11 -10 -16 -10 -6
0 -7 5 -4 10 3 6 11 10 16 10 6 0 7 -4 4 -10z m68 3 c-7 -2 -19 -2 -25 0 -7 3
-2 5 12 5 14 0 19 -2 13 -5z m90 0 c-7 -2 -21 -2 -30 0 -10 3 -4 5 12 5 17 0
24 -2 18 -5z m280 0 c-7 -2 -19 -2 -25 0 -7 3 -2 5 12 5 14 0 19 -2 13 -5z
m-9820 -10 c-7 -2 -19 -2 -25 0 -7 3 -2 5 12 5 14 0 19 -2 13 -5z m280 0 c-7
-2 -19 -2 -25 0 -7 3 -2 5 12 5 14 0 19 -2 13 -5z m2917 3 c0 -3 -4 -8 -10
-11 -5 -3 -10 -1 -10 4 0 6 5 11 10 11 6 0 10 -2 10 -4z m3907 -2 c-3 -3 -12
-4 -19 -1 -8 3 -5 6 6 6 11 1 17 -2 13 -5z m-7577 -25 c0 -6 -4 -7 -10 -4 -5
3 -10 11 -10 16 0 6 5 7 10 4 6 -3 10 -11 10 -16z m-3023 5 c-3 -3 -12 -4 -19
-1 -8 3 -5 6 6 6 11 1 17 -2 13 -5z m7513 -6 c0 -4 -4 -8 -9 -8 -6 0 -12 4
-15 8 -3 5 1 9 9 9 8 0 15 -4 15 -9z m6080 -8 c10 -19 10 -20 -9 -8 -11 6 -17
16 -15 20 8 12 12 10 24 -12z m-7725 -30 c3 -6 -1 -7 -9 -4 -18 7 -21 14 -7
14 6 0 13 -4 16 -10z m-6232 -7 c-7 -2 -19 -2 -25 0 -7 3 -2 5 12 5 14 0 19
-2 13 -5z m1277 3 c0 -3 -4 -8 -10 -11 -5 -3 -10 -1 -10 4 0 6 5 11 10 11 6 0
10 -2 10 -4z m10764 -11 c3 -8 1 -15 -4 -15 -6 0 -10 7 -10 15 0 8 2 15 4 15
2 0 6 -7 10 -15z m961 5 c3 -5 2 -10 -4 -10 -5 0 -13 5 -16 10 -3 6 -2 10 4
10 5 0 13 -4 16 -10z m482 4 c-3 -3 -12 -4 -19 -1 -8 3 -5 6 6 6 11 1 17 -2
13 -5z m-9352 -13 c-17 -15 -65 -22 -65 -10 0 7 3 10 6 7 3 -3 17 -2 32 2 37
11 37 11 27 1z m5792 3 c-3 -3 -12 -4 -19 -1 -8 3 -5 6 6 6 11 1 17 -2 13 -5z
m1798 -4 c8 -13 -5 -13 -25 0 -13 8 -13 10 2 10 9 0 20 -4 23 -10z m192 4 c-3
-3 -12 -4 -19 -1 -8 3 -5 6 6 6 11 1 17 -2 13 -5z m930 -16 c-3 -8 -6 -5 -6 6
-1 11 2 17 5 13 3 -3 4 -12 1 -19z m423 18 c0 -2 -7 -7 -16 -10 -8 -3 -12 -2
-9 4 6 10 25 14 25 6z m377 -2 c-3 -3 -12 -4 -19 -1 -8 3 -5 6 6 6 11 1 17 -2
13 -5z m-12877 -14 c0 -5 -5 -10 -11 -10 -5 0 -7 5 -4 10 3 6 8 10 11 10 2 0
4 -4 4 -10z m80 0 c0 -5 -7 -10 -16 -10 -8 0 -12 5 -9 10 3 6 10 10 16 10 5 0
9 -4 9 -10z m87 4 c-3 -3 -12 -4 -19 -1 -8 3 -5 6 6 6 11 1 17 -2 13 -5z m153
-10 c0 -2 -12 -4 -27 -4 -21 0 -24 3 -14 9 13 8 41 5 41 -5z m230 6 c0 -5 -5
-10 -11 -10 -5 0 -7 5 -4 10 3 6 8 10 11 10 2 0 4 -4 4 -10z m335 0 c3 -5 1
-10 -4 -10 -6 0 -11 5 -11 10 0 6 2 10 4 10 3 0 8 -4 11 -10z m285 6 c0 -3 -4
-8 -10 -11 -5 -3 -10 -1 -10 4 0 6 5 11 10 11 6 0 10 -2 10 -4z m853 -10 c4
-10 1 -13 -8 -9 -8 3 -12 9 -9 14 7 12 11 11 17 -5z m217 10 c0 -3 -4 -8 -10
-11 -5 -3 -10 -1 -10 4 0 6 5 11 10 11 6 0 10 -2 10 -4z m85 -6 c3 -6 -1 -7
-9 -4 -18 7 -21 14 -7 14 6 0 13 -4 16 -10z m855 6 c0 -3 -4 -8 -10 -11 -5 -3
-10 -1 -10 4 0 6 5 11 10 11 6 0 10 -2 10 -4z m3100 -6 c0 -5 -8 -10 -17 -10
-15 0 -16 2 -3 10 19 12 20 12 20 0z m355 0 c-3 -5 -12 -10 -18 -10 -7 0 -6 4
3 10 19 12 23 12 15 0z m40 0 c3 -5 1 -10 -4 -10 -6 0 -11 5 -11 10 0 6 2 10
4 10 3 0 8 -4 11 -10z m50 -8 c-3 -3 -11 0 -18 7 -9 10 -8 11 6 5 10 -3 15 -9
12 -12z m70 0 c-3 -3 -11 0 -18 7 -9 10 -8 11 6 5 10 -3 15 -9 12 -12z m430 8
c-3 -5 -14 -10 -23 -10 -15 0 -15 2 -2 10 20 13 33 13 25 0z m160 0 c3 -5 -1
-10 -10 -10 -9 0 -13 5 -10 10 3 6 8 10 10 10 2 0 7 -4 10 -10z m700 0 c-3 -5
-12 -10 -18 -10 -7 0 -6 4 3 10 19 12 23 12 15 0z m3363 3 c-10 -2 -28 -2 -40
0 -13 2 -5 4 17 4 22 1 32 -1 23 -4z m92 3 c0 -2 -7 -7 -16 -10 -8 -3 -12 -2
-9 4 6 10 25 14 25 6z m37 -2 c-3 -3 -12 -4 -19 -1 -8 3 -5 6 6 6 11 1 17 -2
13 -5z m1250 0 c-3 -3 -12 -4 -19 -1 -8 3 -5 6 6 6 11 1 17 -2 13 -5z m-12604
-11 c-7 -2 -19 -2 -25 0 -7 3 -2 5 12 5 14 0 19 -2 13 -5z m240 0 c-7 -2 -21
-2 -30 0 -10 3 -4 5 12 5 17 0 24 -2 18 -5z m1084 1 c-3 -3 -12 -4 -19 -1 -8
3 -5 6 6 6 11 1 17 -2 13 -5z m1536 -1 c-7 -2 -21 -2 -30 0 -10 3 -4 5 12 5
17 0 24 -2 18 -5z m60 0 c-7 -2 -21 -2 -30 0 -10 3 -4 5 12 5 17 0 24 -2 18
-5z m100 0 c-7 -2 -21 -2 -30 0 -10 3 -4 5 12 5 17 0 24 -2 18 -5z m1634 1
c-3 -3 -12 -4 -19 -1 -8 3 -5 6 6 6 11 1 17 -2 13 -5z m1700 0 c-3 -3 -12 -4
-19 -1 -8 3 -5 6 6 6 11 1 17 -2 13 -5z m1340 0 c-3 -3 -12 -4 -19 -1 -8 3 -5
6 6 6 11 1 17 -2 13 -5z m2140 0 c-3 -3 -12 -4 -19 -1 -8 3 -5 6 6 6 11 1 17
-2 13 -5z m1096 -1 c-7 -2 -19 -2 -25 0 -7 3 -2 5 12 5 14 0 19 -2 13 -5z
m1444 1 c-3 -3 -12 -4 -19 -1 -8 3 -5 6 6 6 11 1 17 -2 13 -5z m458 -32 c4
-11 6 -3500 1 -3814 0 -62 3 -104 8 -100 6 3 6 -3 1 -14 -11 -26 -11 -224 0
-248 6 -14 5 -17 -4 -12 -10 7 -12 -447 -10 -2248 2 -1240 1 -2257 -2 -2260
-3 -3 -1699 -7 -3769 -10 -2071 -2 -3787 -4 -3814 -4 -29 -1 -52 -6 -57 -14
-6 -9 -9 -9 -9 -1 0 8 -48 12 -170 12 -133 1 -169 -2 -164 -12 6 -9 4 -9 -7
-1 -8 6 -56 10 -119 9 -1014 -20 -5672 -27 -5690 -9 -8 8 -14 1040 -20 3795
-5 2081 -12 3827 -15 3879 -2 52 -7 304 -10 560 l-5 465 598 5 c908 8 3031 6
3262 -3 113 -4 261 -12 330 -17 308 -26 592 -52 677 -64 51 -7 97 -10 102 -6
14 8 -170 34 -459 65 -299 32 -323 35 -315 43 4 4 2165 9 4803 12 2638 3 4809
6 4824 6 15 0 30 -6 33 -14z m-13928 -38 c-3 -3 -12 -4 -19 -1 -8 3 -5 6 6 6
11 1 17 -2 13 -5z m40 -20 c-3 -3 -12 -4 -19 -1 -8 3 -5 6 6 6 11 1 17 -2 13
-5z m14030 -26 c-3 -8 -6 -5 -6 6 -1 11 2 17 5 13 3 -3 4 -12 1 -19z m-14059
-41 c5 -24 -15 -21 -21 4 -3 13 -1 19 6 16 7 -2 13 -11 15 -20z m14059 -24
c-3 -10 -5 -2 -5 17 0 19 2 27 5 18 2 -10 2 -26 0 -35z m-114 -48 c-3 -9 -8
-14 -10 -11 -3 3 -2 9 2 15 9 16 15 13 8 -4z m-13963 -55 c0 -5 -5 -10 -11
-10 -5 0 -7 5 -4 10 3 6 8 10 11 10 2 0 4 -4 4 -10z m13 -365 c-7 -21 -13 -19
-13 6 0 11 4 18 10 14 5 -3 7 -12 3 -20z m14014 -547 c-3 -8 -6 -5 -6 6 -1 11
2 17 5 13 3 -3 4 -12 1 -19z m-14007 -382 c0 -3 -4 -8 -10 -11 -5 -3 -10 -1
-10 4 0 6 5 11 10 11 6 0 10 -2 10 -4z m7 -108 c-3 -8 -6 -5 -6 6 -1 11 2 17
5 13 3 -3 4 -12 1 -19z m-10 -100 c-3 -8 -6 -5 -6 6 -1 11 2 17 5 13 3 -3 4
-12 1 -19z m26 -426 c3 -24 1 -40 -4 -36 -5 3 -9 24 -9 46 0 51 5 47 13 -10z
m7 -142 c0 -5 -5 -10 -11 -10 -5 0 -7 5 -4 10 3 6 8 10 11 10 2 0 4 -4 4 -10z
m27 -52 c-3 -8 -6 -5 -6 6 -1 11 2 17 5 13 3 -3 4 -12 1 -19z m-37 -23 c0 -8
-2 -15 -4 -15 -2 0 -6 7 -10 15 -3 8 -1 15 4 15 6 0 10 -7 10 -15z m-33 -47
c-3 -8 -6 -5 -6 6 -1 11 2 17 5 13 3 -3 4 -12 1 -19z m28 -27 c3 -5 2 -12 -3
-15 -5 -3 -9 1 -9 9 0 17 3 19 12 6z m35 -181 c0 -5 -4 -10 -9 -10 -6 0 -13 5
-16 10 -3 6 1 10 9 10 9 0 16 -4 16 -10z m-10 -29 c0 -6 -9 -9 -19 -8 -11 0
-17 5 -15 9 7 11 34 10 34 -1z m2 -53 c-2 -15 -8 -28 -14 -28 -5 0 -8 6 -7 13
3 27 -2 36 -18 31 -12 -4 -14 -3 -6 3 7 5 20 9 31 9 14 0 17 -6 14 -28z m-16
-38 c8 0 14 -8 14 -18 0 -10 -7 -19 -15 -19 -17 0 -38 54 -27 71 4 7 8 2 10
-11 2 -13 10 -23 18 -23z m14 -81 c0 -33 -7 -36 -27 -11 -8 9 -12 11 -8 5 3
-7 1 -13 -4 -13 -16 0 -13 21 5 41 21 24 34 15 34 -22z m-5 -57 c-7 -8 -45 10
-40 19 4 5 14 3 25 -3 11 -7 17 -14 15 -16z m7 -62 c-4 -11 -8 -8 -12 10 -4
14 -5 29 -2 34 8 14 20 -27 14 -44z m-22 10 c0 -5 -8 -10 -17 -10 -15 0 -16 2
-3 10 19 12 20 12 20 0z m24 -52 c6 -27 0 -38 -22 -38 -15 0 -15 2 -2 11 11 8
12 12 3 16 -7 2 -13 13 -13 24 0 25 26 14 34 -13z m-8 -75 c1 -11 -5 -20 -12
-20 -8 0 -14 11 -14 25 0 29 24 25 26 -5z m4 -43 c0 -5 -6 -10 -12 -10 -9 0
-8 -4 2 -10 9 -6 10 -10 3 -10 -6 0 -15 5 -18 10 -7 12 2 30 16 30 5 0 9 -4 9
-10z m-3 -80 c2 -30 -18 -42 -32 -20 -3 6 1 7 9 4 9 -3 16 -1 16 5 0 6 -4 11
-8 11 -5 0 -9 7 -9 15 0 29 22 15 24 -15z m3 -44 c0 -2 -7 -6 -15 -10 -8 -3
-15 -1 -15 4 0 6 7 10 15 10 8 0 15 -2 15 -4z m2 -53 c-6 -2 -10 -9 -7 -13 3
-5 0 -12 -6 -16 -8 -4 -9 -3 -5 4 4 7 0 12 -11 13 -16 0 -16 1 2 9 11 5 25 9
30 9 6 -1 4 -3 -3 -6z m-22 -75 c0 -17 -3 -28 -7 -24 -5 4 -8 20 -8 36 0 15 3
26 8 23 4 -2 7 -18 7 -35z m15 -68 c3 -5 1 -10 -4 -10 -6 0 -11 5 -11 10 0 6
2 10 4 10 3 0 8 -4 11 -10z m-10 -40 c-3 -5 -11 -10 -16 -10 -6 0 -7 5 -4 10
3 6 11 10 16 10 6 0 7 -4 4 -10z m-15 -74 c0 -3 -4 -8 -10 -11 -5 -3 -10 -1
-10 4 0 6 5 11 10 11 6 0 10 -2 10 -4z m4 -31 c-4 -9 0 -15 7 -15 11 0 11 -3
-1 -10 -22 -14 -30 -12 -30 9 0 16 6 22 27 30 1 1 0 -6 -3 -14z m14 -47 c-2
-6 -13 -12 -24 -14 -19 -3 -19 -3 0 12 24 17 29 18 24 2z m-2 -61 c1 -9 -2
-17 -8 -17 -6 0 -8 6 -5 14 3 8 2 17 -4 20 -5 2 -4 3 2 2 7 -1 13 -10 15 -19z
m-1 -37 c3 -5 -1 -10 -9 -10 -9 0 -16 5 -16 10 0 6 4 10 9 10 6 0 13 -4 16
-10z m15 -70 c0 -5 -4 -10 -9 -10 -4 0 -8 -18 -7 -41 1 -22 -2 -42 -6 -45 -4
-3 -8 -10 -8 -15 0 -6 5 -7 10 -4 6 3 10 2 10 -3 0 -6 -7 -13 -16 -16 -14 -5
-15 1 -10 54 4 33 9 67 12 75 7 17 24 20 24 5z m-10 -155 c-7 -8 -10 -22 -6
-30 3 -9 0 -15 -9 -15 -17 0 -16 40 0 52 18 13 28 8 15 -7z m14007 -37 c-3 -8
-6 -5 -6 6 -1 11 2 17 5 13 3 -3 4 -12 1 -19z m-14017 -22 c0 -3 -4 -8 -10
-11 -5 -3 -10 -1 -10 4 0 6 5 11 10 11 6 0 10 -2 10 -4z m14027 -28 c-3 -8 -6
-5 -6 6 -1 11 2 17 5 13 3 -3 4 -12 1 -19z m-14026 -15 c-8 -15 -10 -15 -11
-2 0 17 10 32 18 25 2 -3 -1 -13 -7 -23z m4 -63 c0 -22 -4 -38 -10 -37 -13 5
-5 77 9 77 1 0 2 -18 1 -40z m14025 -54 c0 -2 -7 -7 -16 -10 -8 -3 -12 -2 -9
4 6 10 25 14 25 6z m-14025 -49 c1 -32 -11 -26 -17 8 -4 16 -1 24 6 22 6 -2
11 -15 11 -30z m13902 11 c-3 -8 -6 -5 -6 6 -1 11 2 17 5 13 3 -3 4 -12 1 -19z
m-13902 -58 c3 -5 1 -10 -4 -10 -6 0 -11 5 -11 10 0 6 2 10 4 10 3 0 8 -4 11
-10z m-5 -35 c7 -9 8 -15 2 -15 -5 0 -12 7 -16 15 -3 8 -4 15 -2 15 2 0 9 -7
16 -15z m10 -29 c0 -3 -4 -8 -10 -11 -5 -3 -10 -1 -10 4 0 6 5 11 10 11 6 0
10 -2 10 -4z m5 -81 c0 -30 -3 -55 -7 -55 -5 0 -8 -9 -8 -20 0 -11 -5 -20 -11
-20 -5 0 -7 5 -4 10 4 6 1 18 -6 26 -10 12 -9 13 5 8 19 -7 19 -4 6 30 -6 17
-6 27 1 31 5 4 7 15 4 26 -4 12 -2 19 7 19 9 0 13 -16 13 -55z m5 -127 c0 -6
-6 -5 -15 2 -12 10 -15 10 -15 -4 0 -9 5 -16 11 -16 8 0 7 -6 -2 -17 -12 -14
-12 -16 0 -8 11 7 13 1 8 -28 -4 -25 -2 -37 6 -37 7 0 6 -4 -3 -10 -23 -15
-30 -12 -30 14 0 13 -3 26 -7 29 -5 2 -3 3 4 1 18 -4 23 7 8 22 -8 8 -12 23
-10 34 2 11 -2 20 -8 21 -7 0 -3 4 8 8 23 9 45 4 45 -11z m-16 -150 c-3 -4 1
-8 8 -9 7 0 4 -4 -7 -9 -11 -5 -14 -9 -7 -9 7 -1 10 -5 7 -11 -3 -5 -1 -10 4
-10 6 0 11 -5 11 -11 0 -6 -7 -8 -17 -4 -15 5 -16 4 -5 -6 6 -7 12 -17 12 -21
0 -4 -6 -8 -12 -8 -9 0 -13 18 -14 53 -2 39 2 54 12 54 7 0 11 -4 8 -9z m16
-122 c0 -3 -4 -8 -10 -11 -5 -3 -10 -1 -10 4 0 6 5 11 10 11 6 0 10 -2 10 -4z
m-21 -44 c-6 -2 -4 -11 3 -20 11 -13 11 -14 -2 -10 -8 2 -16 17 -17 31 -1 22
1 24 12 14 7 -6 9 -14 4 -15z m12 -102 c5 0 9 -5 9 -10 0 -6 -7 -6 -19 2 -12
7 -17 18 -13 27 6 14 7 14 10 -1 2 -10 8 -18 13 -18z m-3 -61 c-3 -20 -5 -19
-9 9 -3 20 -2 29 4 23 5 -5 7 -19 5 -32z m13959 19 c-3 -8 -6 -5 -6 6 -1 11 2
17 5 13 3 -3 4 -12 1 -19z m50 -10 c-3 -8 -6 -5 -6 6 -1 11 2 17 5 13 3 -3 4
-12 1 -19z m-14007 -148 c0 -5 -5 -10 -11 -10 -5 0 -7 5 -4 10 3 6 8 10 11 10
2 0 4 -4 4 -10z m0 -97 c0 -13 -3 -13 -15 -3 -9 8 -15 9 -15 2 0 -6 5 -14 10
-17 6 -3 10 -11 10 -18 0 -6 -7 -2 -15 10 -8 12 -12 28 -9 37 7 18 34 10 34
-11z m13970 7 c0 -5 -2 -10 -4 -10 -3 0 -8 5 -11 10 -3 6 -1 10 4 10 6 0 11
-4 11 -10z m-13974 -72 c4 -6 3 -8 -3 -5 -6 4 -13 0 -17 -8 -3 -8 -1 -17 4
-20 5 -3 7 -12 4 -19 -3 -7 2 -21 12 -30 9 -9 13 -20 10 -23 -10 -10 -39 37
-41 66 -1 14 3 32 8 39 12 15 14 15 23 0z m13961 -60 c-3 -8 -6 -5 -6 6 -1 11
2 17 5 13 3 -3 4 -12 1 -19z m-13955 -141 c-3 -13 -8 -15 -16 -7 -8 8 -7 13 2
19 10 6 10 10 -2 21 -9 7 -13 17 -10 22 9 14 31 -34 26 -55z m-7 -35 c-3 -3
-11 0 -18 7 -9 10 -8 11 6 5 10 -3 15 -9 12 -12z m-6 -44 c-8 -14 -14 -18 -17
-10 -4 13 17 46 25 38 3 -2 -1 -15 -8 -28z m13974 -8 c-7 -28 -13 -25 -13 6 0
14 4 23 9 20 5 -3 7 -15 4 -26z m-13963 -25 c0 -8 -4 -15 -10 -15 -5 0 -7 7
-4 15 4 8 8 15 10 15 2 0 4 -7 4 -15z m10 -29 c0 -2 -7 -9 -15 -16 -13 -11
-14 -10 -9 4 5 14 24 23 24 12z m-18 -45 c-8 -5 -12 -18 -10 -29 1 -12 -1 -20
-6 -19 -5 1 -10 13 -11 27 -2 20 3 26 19 28 14 1 17 -1 8 -7z m13993 -30 c3
-5 1 -12 -5 -16 -5 -3 -10 1 -10 9 0 18 6 21 15 7z m-14003 -70 c2 -17 -2 -40
-9 -53 -12 -21 -13 -19 -11 30 2 57 13 70 20 23z m13982 -36 c-4 -8 0 -23 7
-33 13 -15 12 -16 -3 -3 -19 14 -25 51 -8 51 5 0 7 -7 4 -15z m-13957 -47 c-3
-8 -6 -5 -6 6 -1 11 2 17 5 13 3 -3 4 -12 1 -19z m13963 -18 c0 -5 -5 -10 -11
-10 -5 0 -7 5 -4 10 3 6 8 10 11 10 2 0 4 -4 4 -10z m-13970 -23 c0 -7 -4 -6
-10 3 -8 12 -10 12 -10 1 0 -8 -3 -12 -6 -8 -9 9 6 28 17 22 5 -4 9 -12 9 -18z
m13990 -17 c0 -5 -2 -10 -4 -10 -3 0 -8 5 -11 10 -3 6 -1 10 4 10 6 0 11 -4
11 -10z m-13990 -11 c0 -5 -4 -7 -10 -4 -5 3 -10 1 -10 -4 0 -6 8 -12 18 -12
15 -1 15 -2 0 -6 -12 -3 -17 -15 -16 -44 0 -32 3 -39 16 -34 13 5 12 2 -3 -15
-19 -21 -41 -28 -29 -8 4 6 6 40 5 75 -2 52 0 63 13 63 9 0 16 -5 16 -11z
m13897 -21 c-3 -7 -5 -2 -5 12 0 14 2 19 5 13 2 -7 2 -19 0 -25z m84 -11 c-13
-13 -26 -3 -16 12 3 6 11 8 17 5 6 -4 6 -10 -1 -17z m-13971 -17 c0 -5 -4 -10
-10 -10 -5 0 -10 5 -10 10 0 6 5 10 10 10 6 0 10 -4 10 -10z m13969 -44 c-2
-34 -3 -36 -6 -11 -3 17 -9 35 -14 41 -5 7 -3 11 6 11 11 0 15 -11 14 -41z
m-19 4 c0 -5 -4 -10 -10 -10 -5 0 -10 5 -10 10 0 6 5 10 10 10 6 0 10 -4 10
-10z m0 -30 c0 -5 -5 -10 -11 -10 -5 0 -7 5 -4 10 3 6 8 10 11 10 2 0 4 -4 4
-10z m-13979 -80 c-1 -25 2 -40 9 -40 6 0 8 6 4 13 -5 9 -4 9 6 0 15 -14 4
-34 -15 -26 -11 3 -15 20 -15 56 0 28 3 47 7 43 4 -4 6 -25 4 -46z m13981 -56
c-9 -16 -10 -14 -9 8 1 15 6 23 11 18 4 -4 4 -16 -2 -26z m-13982 -14 c0 -5
-5 -10 -11 -10 -5 0 -7 5 -4 10 3 6 8 10 11 10 2 0 4 -4 4 -10z m30 -45 c0 -5
-5 -3 -10 5 -5 8 -10 20 -10 25 0 6 5 3 10 -5 5 -8 10 -19 10 -25z m-33 -7
c-4 -13 -1 -18 7 -15 15 6 19 -40 5 -49 -5 -3 -9 -10 -9 -15 0 -6 4 -8 9 -4 6
3 9 -3 8 -14 0 -10 -10 -24 -22 -31 -18 -12 -19 -12 -7 3 8 9 11 25 7 36 -3
10 -1 22 5 26 14 9 13 25 -2 20 -9 -4 -13 7 -13 34 0 21 4 37 8 34 5 -3 6 -14
4 -25z m16 -145 c-7 -3 -13 -17 -12 -31 0 -24 1 -25 9 -7 l9 20 1 -20 c1 -11
3 -35 6 -52 2 -18 -1 -33 -6 -33 -5 0 -8 14 -6 30 2 17 -1 30 -5 30 -5 0 -9
-20 -9 -44 0 -25 -4 -47 -8 -50 -14 -9 -7 141 8 158 7 9 16 14 19 10 3 -4 0
-9 -6 -11z m-9 -178 c-4 -8 -11 -12 -16 -9 -6 4 -5 10 3 15 19 12 19 11 13 -6z
m13993 -107 c-3 -8 -6 -5 -6 6 -1 11 2 17 5 13 3 -3 4 -12 1 -19z m-13977 -5
c0 -8 -4 -12 -8 -9 -5 3 -9 -8 -10 -25 -1 -50 -12 -47 -12 3 0 33 4 45 15 45
8 0 15 -7 15 -14z m13977 -55 c-3 -8 -6 -5 -6 6 -1 11 2 17 5 13 3 -3 4 -12 1
-19z m-13967 2 c0 -5 -4 -10 -10 -10 -5 0 -10 5 -10 10 0 6 5 10 10 10 6 0 10
-4 10 -10z m-32 -55 c0 -14 -4 -25 -9 -25 -10 0 -11 12 -3 34 9 22 12 20 12
-9z m19 -27 c-3 -7 -5 -2 -5 12 0 14 2 19 5 13 2 -7 2 -19 0 -25z m13981 -23
c-3 -3 -9 2 -12 12 -6 14 -5 15 5 6 7 -7 10 -15 7 -18z m-13998 -49 l-22 -21
11 22 c6 12 8 23 3 26 -4 2 -1 2 6 1 6 -2 13 4 13 14 1 14 2 14 6 -2 3 -11 -4
-27 -17 -40z m13984 -12 c3 -8 2 -12 -4 -9 -6 3 -10 10 -10 16 0 14 7 11 14
-7z m-13979 -23 c3 -5 1 -12 -4 -15 -5 -3 -11 1 -15 9 -6 16 9 21 19 6z m0
-51 c-10 -11 -21 -17 -24 -14 -3 3 3 12 13 20 28 20 32 17 11 -6z m13982 -12
c-3 -7 -5 -2 -5 12 0 14 2 19 5 13 2 -7 2 -19 0 -25z m-13982 -38 c3 -5 1 -10
-4 -10 -6 0 -11 5 -11 10 0 6 2 10 4 10 3 0 8 -4 11 -10z m14002 -22 c-3 -8
-6 -5 -6 6 -1 11 2 17 5 13 3 -3 4 -12 1 -19z m-13987 -8 c0 -5 -5 -10 -11
-10 -5 0 -7 5 -4 10 3 6 8 10 11 10 2 0 4 -4 4 -10z m13980 -42 c0 -13 -4 -29
-8 -35 -5 -8 -8 1 -8 22 0 19 4 35 8 35 4 0 8 -10 8 -22z m-13987 -8 c-10 -11
-19 -20 -21 -20 -1 0 2 9 8 20 6 11 15 20 20 20 6 0 2 -9 -7 -20z m-8 -80 c3
-5 1 -10 -4 -10 -6 0 -11 5 -11 10 0 6 2 10 4 10 3 0 8 -4 11 -10z m3 -62 c-6
-18 -12 -39 -14 -45 -2 -7 -9 -13 -16 -12 -10 0 -10 2 0 6 6 2 12 15 12 28 0
29 10 55 20 55 5 0 3 -15 -2 -32z m13999 -20 c-3 -7 -5 -2 -5 12 0 14 2 19 5
13 2 -7 2 -19 0 -25z m-14017 -68 c0 -5 -5 -10 -11 -10 -5 0 -7 5 -4 10 3 6 8
10 11 10 2 0 4 -4 4 -10z m17 -62 c-3 -8 -6 -5 -6 6 -1 11 2 17 5 13 3 -3 4
-12 1 -19z m-2 -37 c-3 -6 -11 -11 -16 -11 -5 0 -4 6 3 14 14 16 24 13 13 -3z
m-2 -53 c14 -23 15 -26 2 -22 -8 4 -15 10 -15 14 0 5 -3 17 -7 27 -8 22 -3 17
20 -19z m14010 -5 c-7 -2 -13 -12 -13 -20 0 -9 -3 -14 -6 -10 -10 10 4 37 18
36 10 0 10 -2 1 -6z m4 -45 c-3 -8 -6 -5 -6 6 -1 11 2 17 5 13 3 -3 4 -12 1
-19z m-14018 -32 c-9 -8 -10 -7 -5 7 3 10 7 24 7 30 1 7 3 4 6 -7 3 -10 -1
-23 -8 -30z m13 -43 c-5 -24 -6 -25 -12 -8 -8 21 -4 35 9 35 5 0 6 -12 3 -27z
m13998 -28 c0 -8 -4 -15 -10 -15 -5 0 -7 7 -4 15 4 8 8 15 10 15 2 0 4 -7 4
-15z m-13995 -15 c3 -5 -1 -10 -10 -10 -9 0 -13 5 -10 10 3 6 8 10 10 10 2 0
7 -4 10 -10z m-5 -61 c0 -5 -4 -9 -10 -9 -5 0 -10 7 -10 16 0 8 5 12 10 9 6
-3 10 -10 10 -16z m14003 -35 c-3 -8 -9 -14 -14 -14 -4 0 -6 7 -3 15 4 8 1 15
-5 15 -6 0 -11 7 -11 15 0 13 3 12 19 -2 11 -9 17 -22 14 -29z m-13986 -4 c-1
-11 -5 -20 -9 -20 -3 0 -6 9 -5 20 1 11 5 20 9 20 3 0 6 -9 5 -20z m-7 -41 c0
-4 -7 -6 -15 -3 -8 4 -15 10 -15 15 0 4 7 6 15 3 8 -4 15 -10 15 -15z m13986
-47 c-3 -3 -6 2 -6 11 0 8 -5 17 -11 19 -6 2 -7 11 -3 23 7 17 9 15 17 -14 4
-18 6 -36 3 -39z m-13995 20 c-8 -3 -7 -8 6 -19 10 -8 13 -12 6 -9 -6 4 -15 1
-19 -5 -10 -16 -23 8 -17 31 3 12 11 16 21 12 11 -4 12 -7 3 -10z m6 -67 c-4
-8 -11 -15 -17 -15 -6 0 -6 7 2 20 14 22 24 19 15 -5z m13992 -25 c0 -10 -3
-8 -9 5 -12 27 -12 43 0 25 5 -8 9 -22 9 -30z m-3 -53 c1 -15 -3 -27 -8 -27
-5 0 -7 -3 -5 -7 3 -5 1 -17 -4 -28 -6 -16 -8 -12 -8 18 -1 20 4 37 9 37 6 0
10 8 10 18 0 14 -2 15 -10 2 -8 -13 -10 -12 -10 3 0 29 25 13 26 -16z m-13986
2 c-7 -11 -14 -18 -17 -15 -3 3 0 12 7 21 18 21 23 19 10 -6z m-10 -50 c0 -11
-4 -17 -10 -14 -5 3 -10 13 -10 21 0 8 5 14 10 14 6 0 10 -9 10 -21z m10 -39
c-19 -13 -30 -13 -30 0 0 6 10 10 23 10 18 0 19 -2 7 -10z m13986 -22 c-3 -13
-6 -29 -6 -35 0 -7 -4 -13 -10 -13 -5 0 -10 9 -10 20 0 11 4 20 10 20 5 0 7 7
4 15 -4 8 -1 15 6 15 8 0 10 -8 6 -22z m-13976 -27 c0 -12 -20 -25 -27 -18 -7
7 6 27 18 27 5 0 9 -4 9 -9z m-23 -37 c-3 -3 -12 -4 -19 -1 -8 3 -5 6 6 6 11
1 17 -2 13 -5z m13988 -69 c0 -36 -4 -65 -8 -65 -8 0 -8 94 1 118 7 20 8 15 7
-53z m-13969 24 c7 -77 7 -100 -4 -111 -16 -16 -25 -4 -27 37 0 25 3 34 12 31
7 -3 13 -1 13 4 0 6 -5 10 -11 10 -5 0 -7 5 -4 10 3 6 2 10 -4 10 -8 0 -8 10
-2 38 1 2 6 2 13 0 6 -2 13 -15 14 -29z m-3 -176 c-3 -6 -12 -14 -21 -18 -14
-5 -15 -4 -4 6 6 7 12 24 13 39 0 22 1 23 8 5 5 -11 6 -25 4 -32z m13987 25
c0 -12 -3 -18 -7 -14 -11 10 -12 36 -2 36 5 0 9 -10 9 -22z m-13 -70 c-3 -7
-5 -2 -5 12 0 14 2 19 5 13 2 -7 2 -19 0 -25z m-14040 -40 c-3 -8 -6 -5 -6 6
-1 11 2 17 5 13 3 -3 4 -12 1 -19z m50 -80 c-3 -8 -6 -5 -6 6 -1 11 2 17 5 13
3 -3 4 -12 1 -19z m0 -70 c-3 -8 -6 -5 -6 6 -1 11 2 17 5 13 3 -3 4 -12 1 -19z
m14013 8 c0 -11 -19 -15 -25 -6 -3 5 1 10 9 10 9 0 16 -2 16 -4z m-14055 -26
c3 -5 1 -10 -4 -10 -6 0 -11 5 -11 10 0 6 2 10 4 10 3 0 8 -4 11 -10z m62 -10
c-3 -21 -17 -40 -17 -22 0 13 11 42 16 42 2 0 3 -9 1 -20z m13917 4 c3 -8 2
-12 -4 -9 -6 3 -10 10 -10 16 0 14 7 11 14 -7z m-7097 -50 c-3 -3 -12 -4 -19
-1 -8 3 -5 6 6 6 11 1 17 -2 13 -5z m316 -9 c-3 -9 -8 -14 -10 -11 -3 3 -2 9
2 15 9 16 15 13 8 -4z m-7148 -5 c3 -5 1 -10 -4 -10 -6 0 -11 5 -11 10 0 6 2
10 4 10 3 0 8 -4 11 -10z m6982 4 c-3 -3 -12 -4 -19 -1 -8 3 -5 6 6 6 11 1 17
-2 13 -5z m2243 -4 c0 -5 -8 -10 -17 -10 -15 0 -16 2 -3 10 19 12 20 12 20 0z
m-1107 -21 c3 -12 3 -18 0 -15 -4 3 -12 1 -20 -5 -9 -9 -13 -8 -13 0 0 6 5 11
10 11 6 0 10 7 10 15 0 22 7 18 13 -6z m118 8 c-6 -8 -8 -17 -4 -20 3 -4 2 -7
-4 -7 -17 0 -22 12 -10 26 16 17 33 18 18 1z m1456 7 c-3 -3 -12 -4 -19 -1 -8
3 -5 6 6 6 11 1 17 -2 13 -5z m927 -2 c2 -4 -1 -14 -7 -22 -14 -17 -60 -22
-54 -6 3 6 10 10 17 8 7 -2 20 0 29 4 14 5 13 7 -4 14 -16 7 -17 9 -3 9 9 1
19 -2 22 -7z m33 -14 c-3 -8 -6 -5 -6 6 -1 11 2 17 5 13 3 -3 4 -12 1 -19z
m186 -3 c-7 -21 -12 -19 -10 4 0 11 5 18 9 15 4 -3 5 -11 1 -19z m1310 -11
c-3 -7 -10 -11 -15 -8 -6 4 -5 10 3 15 10 6 11 9 2 9 -7 0 -13 5 -13 11 0 8 4
8 14 -1 8 -6 12 -18 9 -26z m-7438 17 c-5 -9 2 -12 60 -26 27 -6 28 -8 10 -15
-11 -4 -22 -4 -25 1 -3 4 -40 9 -83 11 -42 2 -77 7 -77 13 0 6 22 9 50 8 28 0
53 3 56 8 3 5 7 9 10 9 3 0 3 -4 -1 -9z m405 -6 c25 0 51 4 57 8 9 6 11 3 7
-7 -3 -9 -10 -13 -15 -10 -5 3 -9 1 -9 -4 0 -5 -12 -7 -26 -4 -16 3 -30 -1
-35 -9 -6 -10 -9 -10 -9 -1 0 6 -7 12 -15 12 -8 0 -13 -6 -11 -12 1 -7 1 -10
-1 -5 -3 4 -9 7 -15 7 -5 0 -16 7 -24 15 -14 13 -13 15 6 15 12 0 18 -4 15
-10 -3 -5 -1 -10 4 -10 6 0 11 8 11 18 0 10 3 13 8 7 4 -6 27 -10 52 -10z
m340 -11 c0 -12 -2 -12 -14 -2 -8 7 -12 16 -9 21 7 11 23 -2 23 -19z m198 0
c1 -1 -5 -4 -15 -6 -13 -4 -19 0 -19 13 0 14 3 16 16 6 8 -6 16 -12 18 -13z
m92 22 c0 -3 -4 -8 -10 -11 -5 -3 -10 -1 -10 4 0 6 5 11 10 11 6 0 10 -2 10
-4z m34 -2 c9 -3 16 -11 16 -16 0 -6 -6 -5 -15 2 -12 10 -13 8 -10 -10 3 -18
2 -20 -10 -10 -8 6 -11 18 -8 26 6 16 6 16 27 8z m182 -3 c-4 -5 0 -12 6 -15
11 -4 -9 -2 -47 4 -5 1 1 6 15 10 14 4 26 8 28 9 2 1 1 -3 -2 -8z m370 -20
c-4 -6 -13 -11 -19 -10 -9 0 -9 2 1 6 6 2 12 9 12 14 0 6 -5 7 -12 3 -7 -5 -8
-3 -3 5 5 9 11 9 17 3 6 -6 7 -15 4 -21z m120 -8 c-11 -11 -17 4 -9 23 7 18 8
18 11 1 2 -10 1 -21 -2 -24z m334 19 c0 -13 -2 -14 -9 -4 -9 15 -16 15 -46 0
-18 -8 -18 -8 -4 4 25 20 59 20 59 0z m190 3 c0 -1 -6 -7 -13 -13 -10 -8 -13
-6 -13 7 0 11 6 17 13 14 7 -3 13 -6 13 -8z m73 -2 c-5 -12 -2 -15 9 -11 8 4
21 2 29 -3 12 -7 1 -7 -55 0 -5 0 -3 8 4 16 16 20 21 19 13 -2z m54 11 c-3 -3
-12 -4 -19 -1 -8 3 -5 6 6 6 11 1 17 -2 13 -5z m86 -27 c-3 -5 -9 -4 -13 2 -5
9 -10 8 -20 -3 -10 -13 -9 -17 3 -22 9 -3 20 -3 26 0 5 4 12 2 16 -4 4 -6 -8
-10 -30 -10 -20 0 -34 4 -30 9 3 6 -3 14 -12 20 -16 9 -16 10 5 11 12 0 21 3
21 8 -3 18 2 21 20 10 11 -7 17 -16 14 -21z m100 13 c3 -11 1 -18 -4 -14 -5 3
-9 12 -9 20 0 20 7 17 13 -6z m287 8 c-8 -7 -21 -19 -27 -27 -8 -9 -13 -10
-13 -4 0 15 28 43 43 43 6 0 5 -5 -3 -12z m1010 8 c0 -3 -4 -8 -10 -11 -5 -3
-10 -1 -10 4 0 6 5 11 10 11 6 0 10 -2 10 -4z m32 -10 c7 4 8 2 4 -5 -9 -13
-26 -5 -25 12 0 9 2 8 6 -1 2 -6 10 -9 15 -6z m188 -14 c0 -15 -2 -15 -10 -2
-13 20 -13 33 0 25 6 -3 10 -14 10 -23z m1530 24 c0 -3 -4 -8 -10 -11 -5 -3
-10 -1 -10 4 0 6 5 11 10 11 6 0 10 -2 10 -4z m110 -11 c0 -8 -4 -15 -8 -15
-5 0 -9 7 -9 15 0 8 4 15 9 15 4 0 8 -7 8 -15z m920 5 c0 -5 -7 -10 -16 -10
-8 0 -12 5 -9 10 3 6 10 10 16 10 5 0 9 -4 9 -10z m695 -19 c-6 -5 -25 10 -25
20 0 5 6 4 14 -3 8 -7 12 -15 11 -17z m-11581 5 c-3 -9 -12 -12 -22 -9 -15 6
-9 11 25 22 1 1 0 -5 -3 -13z m91 4 c-3 -5 -13 -6 -22 -3 -11 4 -14 3 -9 -5 4
-7 1 -12 -9 -12 -10 0 -13 5 -9 12 5 8 2 9 -9 5 -10 -3 -17 -2 -17 3 0 6 18
10 41 10 23 0 38 -4 34 -10z m67 -12 c-7 -7 -12 -8 -12 -2 0 14 12 26 19 19 2
-3 -1 -11 -7 -17z m2462 12 c14 5 26 6 26 2 0 -5 33 -8 74 -7 46 1 72 -3 69
-9 -4 -5 1 -7 10 -3 10 3 17 2 17 -4 0 -6 -20 -8 -50 -5 -27 3 -50 1 -50 -4 0
-5 -14 -4 -32 2 -42 13 -90 11 -100 -5 -6 -9 -8 -9 -8 0 0 9 -12 11 -39 8 -22
-3 -42 -1 -45 4 -3 4 -17 7 -31 6 -14 -2 -25 1 -25 6 0 5 25 9 55 8 30 -1 58
1 61 4 4 4 15 2 25 -3 11 -7 27 -7 43 0z m744 -1 c25 1 48 -3 52 -9 3 -6 16
-4 33 5 15 8 29 10 32 4 4 -5 15 -5 27 2 18 10 20 9 14 -6 -5 -14 -3 -16 11
-9 25 11 133 13 133 2 0 -5 -17 -9 -37 -8 -68 3 -94 0 -88 -10 3 -5 2 -10 -4
-10 -5 0 -13 5 -16 10 -3 6 -22 10 -40 10 -28 0 -33 -3 -29 -17 5 -17 5 -17
-6 0 -9 13 -15 15 -31 7 -14 -8 -19 -8 -17 2 2 7 -8 14 -21 16 -15 2 -21 0
-17 -7 5 -8 0 -8 -18 -1 -24 9 -30 6 -27 -13 1 -4 -8 -3 -18 3 -11 5 -41 8
-67 5 -33 -3 -44 -1 -37 6 6 6 31 11 57 12 25 1 46 6 46 10 0 5 5 5 12 1 6 -4
32 -6 56 -5z m425 0 c40 4 72 2 78 -4 6 -6 16 -5 29 3 16 10 18 9 14 -3 -5
-12 -22 -14 -80 -12 -41 1 -74 -2 -74 -6 0 -5 -12 -6 -27 -3 -17 5 -29 3 -34
-6 -6 -9 -9 -4 -9 15 0 23 3 26 18 19 9 -5 47 -6 85 -3z m211 0 c13 11 16 11
16 0 0 -9 3 -10 8 -4 4 6 25 8 47 5 32 -4 36 -6 18 -12 -13 -3 -47 -5 -77 -5
-43 2 -53 -1 -49 -13 3 -8 -1 -7 -7 4 -10 14 -10 20 1 27 8 5 16 3 20 -3 6 -9
12 -8 23 1z m343 -9 c1 -11 -2 -20 -8 -20 -10 0 -12 23 -2 33 9 9 9 10 10 -13z
m388 10 c-8 -13 1 -13 27 1 16 8 19 8 16 -2 -5 -16 -48 -32 -48 -18 0 6 -4 7
-10 4 -5 -3 -10 -2 -10 4 0 5 6 12 13 14 18 8 19 8 12 -3z m75 -5 c-7 -9 -15
-13 -19 -10 -3 3 1 10 9 15 21 14 24 12 10 -5z m70 3 c0 -4 -9 -8 -20 -8 -11
0 -20 4 -20 8 0 4 9 8 20 8 11 0 20 -4 20 -8z m26 -14 c-4 -9 -9 -15 -11 -12
-3 3 -3 13 1 22 4 9 9 15 11 12 3 -3 3 -13 -1 -22z m104 22 c0 -3 -4 -8 -10
-11 -5 -3 -10 -1 -10 4 0 6 5 11 10 11 6 0 10 -2 10 -4z m108 -3 c-10 -2 -26
-2 -35 0 -10 3 -2 5 17 5 19 0 27 -2 18 -5z m279 1 c-3 -3 -12 -4 -19 -1 -8 3
-5 6 6 6 11 1 17 -2 13 -5z m127 -10 c3 -8 2 -12 -4 -9 -6 3 -10 10 -10 16 0
14 7 11 14 -7z m41 6 c3 -5 1 -10 -4 -10 -6 0 -11 5 -11 10 0 6 2 10 4 10 3 0
8 -4 11 -10z m116 -13 c-10 -9 -11 -8 -5 6 3 10 9 15 12 12 3 -3 0 -11 -7 -18z
m402 10 c17 5 20 3 10 -7 -14 -15 -43 -6 -42 12 0 9 2 9 5 2 3 -7 15 -9 27 -7z
m96 -10 c0 -9 -2 -9 -5 0 -3 7 -13 9 -22 6 -14 -4 -14 -3 -2 5 16 12 30 7 29
-11z m706 5 c-3 -3 -11 0 -18 7 -9 10 -8 11 6 5 10 -3 15 -9 12 -12z m345 2
c0 -2 -9 -4 -21 -4 -11 0 -18 4 -14 10 5 8 35 3 35 -6z m280 -16 c0 -5 -9 -3
-20 4 -11 7 -20 16 -20 20 0 5 9 3 20 -4 11 -7 20 -16 20 -20z m18 1 c-3 -8
-7 -3 -11 10 -4 17 -3 21 5 13 5 -5 8 -16 6 -23z m42 25 c0 -8 -19 -13 -24 -6
-3 5 1 9 9 9 8 0 15 -2 15 -3z m140 -9 c-7 -9 -15 -13 -17 -11 -7 7 7 26 19
26 6 0 6 -6 -2 -15z m244 -5 c-10 -4 -21 -6 -24 -3 -8 7 24 22 34 16 5 -4 1
-10 -10 -13z m126 16 c0 -2 -7 -7 -16 -10 -8 -3 -12 -2 -9 4 6 10 25 14 25 6z
m100 -10 c0 6 16 11 35 11 19 0 35 -3 35 -7 0 -4 -12 -7 -27 -7 -16 1 -34 -1
-42 -4 -7 -2 -16 3 -18 11 -4 13 -3 13 6 0 6 -8 11 -10 11 -4z m223 -6 c-4
-14 -12 -18 -27 -16 -11 3 -24 5 -28 5 -5 1 -8 5 -8 10 0 5 11 8 25 6 14 -1
28 2 31 6 9 15 12 10 7 -11z m57 9 c0 -5 -4 -8 -9 -5 -5 3 -12 -1 -15 -10 -3
-8 -11 -12 -17 -8 -9 5 -6 11 6 21 23 16 35 17 35 2z m310 -5 c0 -2 -9 -4 -21
-4 -11 0 -18 4 -14 10 5 8 35 3 35 -6z m39 2 c10 -12 8 -13 -8 -9 -12 3 -18 9
-15 14 7 12 10 11 23 -5z m51 4 c0 -5 -5 -10 -11 -10 -5 0 -7 5 -4 10 3 6 8
10 11 10 2 0 4 -4 4 -10z m130 -5 c9 -10 9 -15 1 -15 -6 0 -11 6 -12 13 0 9
-2 9 -5 0 -3 -7 -12 -9 -20 -6 -13 5 -13 7 -2 14 18 12 24 11 38 -6z m55 -4
c-3 -6 -14 -11 -23 -11 -13 0 -13 2 4 14 21 15 30 14 19 -3z m115 -2 c0 -6 -4
-8 -9 -5 -5 4 -11 1 -13 -5 -2 -7 -10 -4 -18 7 -8 10 -10 15 -3 11 6 -4 14 -3
18 3 7 12 25 4 25 -11z m63 6 c-3 -9 -8 -14 -10 -11 -3 3 -2 9 2 15 9 16 15
13 8 -4z m50 -5 c-8 -30 -21 -34 -15 -5 2 14 8 25 12 25 5 0 6 -9 3 -20z m47
16 c0 -2 -7 -7 -16 -10 -8 -3 -12 -2 -9 4 6 10 25 14 25 6z m130 -11 c22 -12
23 -14 4 -12 -11 0 -26 7 -33 14 -15 17 -3 16 29 -2z m190 -11 c0 -2 -9 0 -20
6 -11 6 -20 13 -20 16 0 2 9 0 20 -6 11 -6 20 -13 20 -16z m74 11 c-4 -8 -8
-15 -10 -15 -2 0 -4 7 -4 15 0 8 4 15 10 15 5 0 7 -7 4 -15z m177 -2 c12 -16
12 -17 -2 -6 -9 7 -20 9 -24 5 -5 -4 -5 -1 -1 6 9 16 11 15 27 -5z m52 -4 c4
-16 2 -17 -14 -8 -22 12 -25 26 -5 26 8 0 17 -9 19 -18z m352 11 c3 -6 -4 -10
-17 -10 -18 0 -20 2 -8 10 19 12 18 12 25 0z m31 1 c-4 -5 0 -12 6 -14 8 -3 6
-6 -4 -6 -18 -1 -24 10 -11 22 9 10 15 8 9 -2z m94 -5 c0 -9 -10 -13 -25 -12
-14 0 -25 5 -25 10 0 4 9 6 20 3 11 -3 20 -1 20 4 0 5 2 9 5 9 3 0 5 -6 5 -14z
m69 5 c10 -7 7 -9 -12 -8 -14 1 -23 5 -20 10 6 9 15 9 32 -2z m328 -13 c-3 -8
-6 -5 -6 6 -1 11 2 17 5 13 3 -3 4 -12 1 -19z m928 -16 c-6 -8 -35 12 -35 24
0 11 4 10 18 -3 10 -10 18 -19 17 -21z m239 6 c8 -5 7 -11 -2 -20 -9 -9 -15
-9 -24 1 -11 10 -9 11 7 5 16 -6 18 -5 8 7 -7 7 -13 20 -12 29 0 13 1 13 6 0
3 -8 11 -18 17 -22z m-11575 6 c3 -3 -15 -5 -41 -3 -28 3 -48 0 -49 -6 0 -5
-3 -5 -5 2 -3 7 -11 10 -19 7 -7 -3 -16 -1 -19 4 -7 11 122 7 133 -4z m75 5
c4 -3 -10 -6 -29 -7 -19 -1 -35 2 -35 7 0 9 55 9 64 0z m136 2 c0 -5 -22 -8
-49 -8 -27 1 -47 5 -44 10 6 10 93 9 93 -2z m70 -7 c0 -2 -11 -4 -25 -4 -14 0
-25 4 -25 9 0 4 11 6 25 3 14 -2 25 -6 25 -8z m40 7 c0 -5 -7 -12 -16 -15 -14
-5 -15 -4 -4 9 14 17 20 19 20 6z m75 -19 c-2 -3 -12 -1 -22 2 -15 6 -15 9 -3
16 13 8 35 -8 25 -18z m45 13 c0 -2 -7 -5 -15 -9 -9 -3 -15 0 -15 9 0 9 6 12
15 9 8 -4 15 -7 15 -9z m164 -2 c4 -11 1 -11 -14 -3 -13 7 -20 7 -20 1 0 -6
-7 -8 -15 -5 -8 4 -15 1 -15 -6 0 -10 -3 -10 -15 0 -9 7 -18 10 -22 7 -3 -4
-12 -2 -20 4 -10 9 -13 8 -13 0 0 -7 -5 -9 -10 -6 -22 13 1 20 69 21 50 0 72
-3 75 -13z m76 7 c11 -7 6 -9 -17 -7 -18 1 -33 5 -33 10 0 10 32 9 50 -3z
m203 1 c4 0 7 -4 7 -8 0 -5 -26 -7 -57 -6 -32 1 -75 2 -95 2 -21 1 -38 4 -38
9 0 6 147 8 183 3z m47 -7 c0 -2 -7 -4 -15 -4 -8 0 -15 4 -15 10 0 5 7 7 15 4
8 -4 15 -8 15 -10z m68 3 c6 -5 12 -4 12 1 0 6 25 9 55 9 52 -1 67 -8 45 -22
-5 -3 -10 0 -10 7 0 9 -3 9 -8 2 -6 -9 -46 -11 -129 -5 -13 0 -23 5 -23 9 0
10 41 9 58 -1z m152 3 c0 -5 -4 -10 -10 -10 -5 0 -10 5 -10 10 0 6 5 10 10 10
6 0 10 -4 10 -10z m55 0 c3 -5 -1 -10 -10 -10 -9 0 -13 5 -10 10 3 6 8 10 10
10 2 0 7 -4 10 -10z m73 6 c-2 -1 -10 -7 -19 -14 -13 -10 -19 -9 -28 2 -10 12
-7 15 18 14 17 -1 30 -2 29 -2z m74 -23 c-4 -18 -7 -22 -10 -12 -1 10 -12 19
-23 22 -17 5 -18 3 -8 -9 10 -12 9 -13 -5 -8 -30 11 -18 34 18 34 31 0 33 -2
28 -27z m92 12 c6 -17 -9 -21 -19 -5 -9 14 -42 12 -48 -2 -2 -7 -8 -10 -12 -6
-14 13 7 28 40 28 20 0 35 -6 39 -15z m44 2 c6 -5 12 -4 12 0 0 5 38 9 85 9
108 1 113 -16 5 -19 -14 -1 -28 -6 -32 -12 -4 -5 -8 -1 -8 10 0 17 -2 17 -10
5 -9 -13 -11 -13 -20 0 -6 10 -10 11 -10 3 0 -18 -47 -16 -53 1 -6 15 9 16 31
3z m262 0 c0 -6 5 -6 13 0 12 10 51 14 42 4 -13 -12 -125 -24 -125 -12 0 14 9
18 40 18 17 0 30 -5 30 -10z m106 -2 c14 -13 14 -15 0 -15 -9 0 -16 6 -16 13
0 8 -3 7 -9 -3 -6 -8 -7 -18 -5 -22 3 -4 0 -8 -5 -8 -15 0 -14 23 1 38 15 15
16 15 34 -3z m164 4 c0 -11 -23 -16 -60 -12 -19 2 -45 4 -57 3 -13 0 -23 4
-23 10 0 5 32 8 70 7 39 -1 70 -4 70 -8z m436 0 c3 -6 -1 -17 -10 -25 -9 -8
-11 -9 -6 -2 15 18 12 28 -7 21 -11 -4 -14 -3 -9 5 9 15 23 15 32 1z m176 -3
c5 -8 8 -8 8 0 0 6 18 11 40 12 28 1 38 -2 35 -11 -6 -14 -55 -16 -55 -2 0 6
-3 5 -8 -1 -4 -6 -20 -14 -37 -18 -22 -5 -26 -4 -15 4 13 8 13 10 -2 10 -9 0
-28 -4 -43 -10 -14 -5 -24 -6 -21 -1 3 5 -1 12 -10 15 -27 10 -32 7 -26 -16 3
-13 1 -19 -5 -15 -6 4 -13 15 -15 25 -5 17 1 19 71 19 42 -1 79 -6 83 -11z
m144 5 c-3 -5 -17 -11 -31 -13 -20 -4 -23 -3 -14 8 12 15 54 20 45 5z m1204
-2 c0 6 10 11 22 11 22 0 22 0 3 -14 -26 -17 -55 -16 -55 2 0 12 3 12 15 2 10
-9 15 -9 15 -1z m142 -8 c4 -4 -15 -7 -42 -7 -49 -1 -68 10 -32 19 19 5 63 -2
74 -12z m418 4 c0 -12 -19 -12 -23 0 -4 9 -1 12 9 8 7 -3 14 -7 14 -8z m410 0
c0 -8 -2 -15 -4 -15 -2 0 -6 7 -10 15 -3 8 -1 15 4 15 6 0 10 -7 10 -15z m367
9 c-3 -3 -12 -4 -19 -1 -8 3 -5 6 6 6 11 1 17 -2 13 -5z m216 -11 c-4 -9 -10
-10 -23 -3 -9 5 -20 7 -23 4 -3 -3 -7 -2 -10 3 -3 5 9 8 27 8 22 0 32 -4 29
-12z m582 7 c-3 -5 -11 -10 -16 -10 -6 0 -7 5 -4 10 3 6 11 10 16 10 6 0 7 -4
4 -10z m405 0 c0 -5 -7 -7 -15 -4 -8 4 -15 8 -15 10 0 2 7 4 15 4 8 0 15 -4
15 -10z m70 6 c0 -2 -7 -7 -16 -10 -8 -3 -12 -2 -9 4 6 10 25 14 25 6z m260
-6 c0 -5 -2 -10 -4 -10 -3 0 -8 5 -11 10 -3 6 -1 10 4 10 6 0 11 -4 11 -10z
m109 6 c-8 -8 -98 -12 -93 -4 3 4 26 8 51 8 26 0 44 -2 42 -4z m58 -2 c-3 -3
-12 -4 -19 -1 -8 3 -5 6 6 6 11 1 17 -2 13 -5z m246 -9 c-3 -9 -8 -14 -10 -11
-3 3 -2 9 2 15 9 16 15 13 8 -4z m141 4 c-4 -7 -44 0 -44 7 0 2 11 3 24 2 14
-1 23 -5 20 -9z m207 -12 c-10 -9 -11 -8 -5 6 3 10 9 15 12 12 3 -3 0 -11 -7
-18z m283 7 c3 -8 2 -12 -4 -9 -6 3 -10 10 -10 16 0 14 7 11 14 -7z m266 6 c0
-5 -5 -10 -11 -10 -5 0 -7 5 -4 10 3 6 8 10 11 10 2 0 4 -4 4 -10z m60 0 c0
-5 -2 -10 -4 -10 -3 0 -8 5 -11 10 -3 6 -1 10 4 10 6 0 11 -4 11 -10z m43 3
c-7 -2 -19 -2 -25 0 -7 3 -2 5 12 5 14 0 19 -2 13 -5z m240 -13 c-9 -11 -19
-17 -21 -15 -6 6 18 35 29 35 5 0 1 -9 -8 -20z m264 -2 c-3 -8 -6 -5 -6 6 -1
11 2 17 5 13 3 -3 4 -12 1 -19z m397 13 c4 -5 -3 -7 -14 -4 -23 6 -26 13 -6
13 8 0 17 -4 20 -9z m206 -3 c0 -11 -22 -10 -39 1 -10 7 -7 9 12 8 15 -1 27
-5 27 -9z m40 8 c0 -2 -8 -10 -17 -17 -16 -13 -17 -12 -4 4 13 16 21 21 21 13z
m780 -5 c0 -4 -11 -6 -25 -3 -14 2 -25 6 -25 8 0 2 11 4 25 4 14 0 25 -4 25
-9z m30 5 c0 -3 -4 -8 -10 -11 -5 -3 -10 -1 -10 4 0 6 5 11 10 11 6 0 10 -2
10 -4z m304 -12 c3 -8 2 -12 -4 -9 -6 3 -10 10 -10 16 0 14 7 11 14 -7z m459
-17 c9 -3 17 -3 17 1 0 4 14 8 30 7 17 0 30 -4 30 -8 0 -5 6 -5 13 -1 6 4 9 4
5 -1 -4 -4 -31 -8 -60 -9 -51 -1 -77 12 -77 39 0 6 5 3 12 -6 7 -8 20 -18 30
-22z m980 26 c-7 -2 -19 -2 -25 0 -7 3 -2 5 12 5 14 0 19 -2 13 -5z m265 -18
c-3 -3 -9 2 -12 12 -6 14 -5 15 5 6 7 -7 10 -15 7 -18z m32 21 c0 -3 -4 -8
-10 -11 -5 -3 -10 -1 -10 4 0 6 5 11 10 11 6 0 10 -2 10 -4z m40 -6 c8 -5 11
-10 5 -10 -5 0 -17 5 -25 10 -8 5 -10 10 -5 10 6 0 17 -5 25 -10z m154 2 c2
-4 -4 -8 -14 -8 -10 0 -16 4 -14 8 3 4 9 8 14 8 5 0 11 -4 14 -8z m-12736 -10
c8 -6 2 -9 -18 -9 -20 0 -26 3 -18 9 7 4 15 8 18 8 3 0 11 -4 18 -8z m3812 4
c0 -2 -7 -9 -15 -16 -13 -11 -14 -10 -9 4 5 14 24 23 24 12z m1071 -19 c-10
-9 -11 -8 -5 6 3 10 9 15 12 12 3 -3 0 -11 -7 -18z m1119 13 c0 -5 -4 -10 -10
-10 -5 0 -10 5 -10 10 0 6 5 10 10 10 6 0 10 -4 10 -10z m126 -9 c7 6 27 9 44
7 16 -2 31 0 34 6 2 6 4 2 3 -9 -1 -18 -8 -20 -86 -22 -67 -1 -80 1 -58 9 15
5 27 15 27 21 0 7 5 4 11 -6 8 -14 14 -16 25 -6z m3914 9 c0 -5 -2 -10 -4 -10
-3 0 -8 5 -11 10 -3 6 -1 10 4 10 6 0 11 -4 11 -10z m525 -11 c-4 -5 -12 -9
-18 -8 -9 0 -8 2 1 6 6 2 9 10 6 15 -4 7 -2 8 5 4 6 -4 9 -12 6 -17z m646 -1
c11 -21 11 -22 -4 -9 -10 7 -17 17 -17 22 0 15 9 10 21 -13z m292 15 c-7 -2
-19 -2 -25 0 -7 3 -2 5 12 5 14 0 19 -2 13 -5z m527 -14 c0 -13 -13 -11 -35 5
-18 13 -18 14 8 9 15 -3 27 -9 27 -14z m-8563 -11 c-3 -8 -6 -5 -6 6 -1 11 2
17 5 13 3 -3 4 -12 1 -19z m2000 16 c-3 -3 -12 -4 -19 -1 -8 3 -5 6 6 6 11 1
17 -2 13 -5z m3748 -4 c-3 -5 -12 -10 -18 -10 -7 0 -6 4 3 10 19 12 23 12 15
0z m2458 3 c-7 -2 -21 -2 -30 0 -10 3 -4 5 12 5 17 0 24 -2 18 -5z m63 -8 c-8
-8 -17 -15 -20 -15 -3 0 -3 7 0 15 4 8 13 15 21 15 12 0 12 -2 -1 -15z m201 0
c56 -3 46 -12 -12 -11 -39 1 -55 5 -55 15 0 9 6 11 18 6 9 -5 32 -9 49 -10z
m263 5 c0 -5 -5 -10 -11 -10 -5 0 -7 5 -4 10 3 6 8 10 11 10 2 0 4 -4 4 -10z
m-8655 -10 c-3 -5 -12 -10 -18 -10 -7 0 -6 4 3 10 19 12 23 12 15 0z m2815 -2
c0 -4 -16 -7 -35 -6 -19 1 -32 5 -29 10 6 10 64 7 64 -4z m60 1 c0 -5 -12 -9
-26 -9 -14 0 -23 4 -20 8 7 11 46 12 46 1z m97 -3 c2 -2 -16 -4 -41 -3 -25 0
-43 4 -40 9 5 7 72 3 81 -6z m4188 -4 c-3 -3 -11 0 -18 7 -9 10 -8 11 6 5 10
-3 15 -9 12 -12z m193 -7 c-3 -3 -9 2 -12 12 -6 14 -5 15 5 6 7 -7 10 -15 7
-18z m502 21 c0 -3 -4 -8 -10 -11 -5 -3 -10 -1 -10 4 0 6 5 11 10 11 6 0 10
-2 10 -4z m40 -12 c0 -2 -7 -4 -15 -4 -8 0 -15 4 -15 10 0 5 7 7 15 4 8 -4 15
-8 15 -10z m44 8 c2 -4 -5 -9 -17 -9 -17 -2 -19 0 -7 7 18 12 18 12 24 2z
m116 -8 c0 -2 -19 -4 -42 -4 -26 0 -38 4 -30 8 12 8 72 4 72 -4z m-12194 -7
c4 -4 -5 -7 -19 -7 -15 0 -27 4 -27 8 0 10 36 9 46 -1z m5267 6 c-7 -2 -19 -2
-25 0 -7 3 -2 5 12 5 14 0 19 -2 13 -5z m870 0 c-7 -2 -21 -2 -30 0 -10 3 -4
5 12 5 17 0 24 -2 18 -5z m415 0 c-10 -2 -28 -2 -40 0 -13 2 -5 4 17 4 22 1
32 -1 23 -4z m65 0 c-7 -2 -19 -2 -25 0 -7 3 -2 5 12 5 14 0 19 -2 13 -5z
m4624 1 c-3 -3 -12 -4 -19 -1 -8 3 -5 6 6 6 11 1 17 -2 13 -5z m348 -4 c-3 -5
-12 -10 -18 -10 -7 0 -6 4 3 10 19 12 23 12 15 0z m2415 -30 c0 -11 -4 -20 -8
-20 -4 0 -8 9 -8 20 0 11 4 20 8 20 4 0 8 -9 8 -20z m-40 -22 c0 -6 -6 -5 -15
2 -8 7 -15 14 -15 16 0 2 7 1 15 -2 8 -4 15 -11 15 -16z m-9139 -25 c13 -17
13 -17 -6 -3 -11 8 -22 16 -24 17 -2 2 0 3 6 3 6 0 17 -8 24 -17z m1459 1 c0
-2 -7 -4 -15 -4 -8 0 -15 4 -15 10 0 5 7 7 15 4 8 -4 15 -8 15 -10z m-2833 0
c-3 -3 -12 -4 -19 -1 -8 3 -5 6 6 6 11 1 17 -2 13 -5z m643 -4 c0 -5 -2 -10
-4 -10 -3 0 -8 5 -11 10 -3 6 -1 10 4 10 6 0 11 -4 11 -10z m200 6 c0 -2 -7
-7 -16 -10 -8 -3 -12 -2 -9 4 6 10 25 14 25 6z m50 0 c0 -11 -19 -15 -25 -6
-3 5 1 10 9 10 9 0 16 -2 16 -4z m343 -3 c-7 -2 -21 -2 -30 0 -10 3 -4 5 12 5
17 0 24 -2 18 -5z m47 -3 c0 -5 -2 -10 -4 -10 -3 0 -8 5 -11 10 -3 6 -1 10 4
10 6 0 11 -4 11 -10z m230 6 c0 -3 -4 -8 -10 -11 -5 -3 -10 -1 -10 4 0 6 5 11
10 11 6 0 10 -2 10 -4z m110 0 c0 -2 -7 -6 -15 -10 -8 -3 -15 -1 -15 4 0 6 7
10 15 10 8 0 15 -2 15 -4z m417 -2 c-3 -3 -12 -4 -19 -1 -8 3 -5 6 6 6 11 1
17 -2 13 -5z m190 -20 c-3 -3 -12 -4 -19 -1 -8 3 -5 6 6 6 11 1 17 -2 13 -5z"/>
<path d="M7640 8913 c-206 -14 -330 -29 -480 -59 -96 -19 -186 -39 -200 -44
-14 -6 -45 -12 -70 -14 -25 -3 -92 -21 -150 -41 -332 -117 -550 -231 -765
-401 -98 -77 -141 -122 -234 -242 -325 -419 -478 -818 -482 -1257 -2 -189 3
-195 191 -214 541 -57 592 -64 870 -112 189 -33 229 -32 258 5 10 14 37 101
62 203 23 98 54 209 67 247 114 317 522 631 879 675 167 20 356 -11 510 -83
224 -106 346 -239 409 -444 51 -164 0 -393 -124 -562 -107 -147 -341 -388
-621 -640 -597 -538 -791 -856 -865 -1415 -33 -251 -46 -481 -35 -625 13 -165
22 -182 101 -192 90 -12 481 -28 689 -28 257 0 508 17 537 36 28 18 28 18 47
246 35 409 103 626 269 858 90 125 325 356 527 516 426 338 735 718 877 1079
202 514 189 989 -43 1475 -163 340 -418 589 -789 770 -194 94 -412 165 -625
204 -274 49 -605 74 -810 59z m977 -119 c-3 -3 -12 -4 -19 -1 -8 3 -5 6 6 6
11 1 17 -2 13 -5z m-1728 -18 c-2 -2 -17 -6 -34 -10 -22 -5 -26 -4 -15 4 14 9
59 15 49 6z m1276 -25 c77 -11 172 -27 210 -35 313 -69 445 -113 664 -222 290
-144 520 -354 672 -614 24 -41 49 -81 56 -88 17 -17 16 -23 0 -16 -8 3 -27 26
-43 51 -34 55 -419 442 -514 517 -66 53 -209 136 -232 136 -7 0 5 -11 27 -23
145 -83 255 -175 402 -337 153 -169 312 -427 374 -608 59 -170 82 -429 56
-622 -25 -181 -108 -411 -212 -590 -124 -210 -199 -315 -333 -463 -111 -124
-401 -400 -563 -535 -131 -110 -338 -329 -402 -426 -100 -149 -187 -351 -228
-523 -25 -108 -59 -317 -59 -363 0 -69 31 -65 -492 -61 -306 2 -477 6 -485 13
-30 24 -6 401 37 592 26 118 115 347 201 518 89 178 184 312 340 483 45 50
126 144 179 210 95 117 180 203 349 354 86 77 216 224 367 416 l16 20 -7 -20
c-4 -11 -8 -29 -9 -40 -3 -22 -57 -100 -150 -216 -32 -41 -165 -179 -295 -306
-130 -128 -232 -233 -228 -233 22 0 421 390 520 509 116 139 156 198 222 329
127 254 158 440 108 657 -71 307 -347 556 -707 637 -132 29 -419 36 -559 13
-246 -41 -426 -132 -598 -304 -124 -124 -201 -244 -279 -436 -18 -43 -59 -183
-69 -235 -22 -110 -42 -160 -64 -160 -12 0 -98 11 -191 24 -197 29 -523 72
-646 87 -47 6 -100 15 -117 20 -32 10 -33 13 -33 62 0 84 56 336 109 484 48
138 111 276 195 428 25 44 45 87 45 96 1 25 105 166 174 237 101 104 217 184
317 218 l35 12 -29 -21 c-87 -64 -275 -219 -301 -248 -36 -40 -29 -35 100 68
279 224 536 361 845 453 225 67 451 112 620 124 135 9 470 -3 605 -23z m590 9
c13 -5 14 -9 5 -9 -8 0 -24 4 -35 9 -13 5 -14 9 -5 9 8 0 24 -4 35 -9z m65
-20 c18 -12 2 -12 -25 0 -13 6 -15 9 -5 9 8 0 22 -4 30 -9z m405 -190 c3 -6
-1 -7 -9 -4 -18 7 -21 14 -7 14 6 0 13 -4 16 -10z m-1617 -777 c-10 -2 -26 -2
-35 0 -10 3 -2 5 17 5 19 0 27 -2 18 -5z m49 1 c-3 -3 -12 -4 -19 -1 -8 3 -5
6 6 6 11 1 17 -2 13 -5z m50 0 c-3 -3 -12 -4 -19 -1 -8 3 -5 6 6 6 11 1 17 -2
13 -5z m111 -1 c-15 -2 -42 -2 -60 0 -18 2 -6 4 27 4 33 0 48 -2 33 -4z m392
-3 c8 -5 11 -10 5 -10 -5 0 -17 5 -25 10 -8 5 -10 10 -5 10 6 0 17 -5 25 -10z
m-707 -17 c-7 -2 -19 -2 -25 0 -7 3 -2 5 12 5 14 0 19 -2 13 -5z m566 -19 c10
-9 -35 -3 -49 6 -11 8 -7 9 15 4 17 -4 32 -8 34 -10z m-670 2 c-2 -2 -17 -6
-34 -10 -22 -5 -26 -4 -15 4 14 9 59 15 49 6z m706 -24 c-3 -3 -11 0 -18 7 -9
10 -8 11 6 5 10 -3 15 -9 12 -12z m-785 -2 c-8 -5 -19 -10 -25 -10 -5 0 -3 5
5 10 8 5 20 10 25 10 6 0 3 -5 -5 -10z m-45 -10 c-3 -5 -12 -10 -18 -10 -7 0
-6 4 3 10 19 12 23 12 15 0z m905 -11 c13 -7 13 -8 0 -8 -8 0 -26 6 -40 15
l-25 15 25 -7 c14 -3 32 -10 40 -15z m70 -35 c0 -2 -9 0 -20 6 -11 6 -20 13
-20 16 0 2 9 0 20 -6 11 -6 20 -13 20 -16z m301 -226 c17 -29 40 -62 51 -73
31 -33 84 -166 86 -215 1 -43 0 -42 -22 30 -27 89 -59 154 -120 244 -25 36
-42 66 -37 66 5 0 24 -24 42 -52z m-2114 -834 c-3 -3 -12 -4 -19 -1 -8 3 -5 6
6 6 11 1 17 -2 13 -5z m3314 -157 c-10 -9 -11 -8 -5 6 3 10 9 15 12 12 3 -3 0
-11 -7 -18z m-1511 -70 c0 -2 -15 -16 -32 -33 l-33 -29 29 33 c28 30 36 37 36
29z m1470 -16 c0 -5 -9 -19 -21 -32 l-20 -24 17 33 c19 33 24 38 24 23z
m-1530 -59 c0 -4 -10 -13 -22 -21 -23 -14 -23 -14 -4 8 20 22 26 25 26 13z
m1402 -174 c-7 -7 -12 -8 -12 -2 0 14 12 26 19 19 2 -3 -1 -11 -7 -17z m-12
-22 c0 -3 -4 -8 -10 -11 -5 -3 -10 -1 -10 4 0 6 5 11 10 11 6 0 10 -2 10 -4z
m-46 -82 c-16 -20 -36 -46 -44 -58 -33 -48 -107 -135 -171 -203 -64 -67 -91
-90 -73 -61 4 7 3 8 -5 4 -6 -4 -9 -12 -6 -17 5 -8 -119 -139 -132 -139 -2 0
11 19 31 41 19 23 33 45 31 50 -3 4 0 11 6 15 8 4 9 3 5 -4 -4 -7 -4 -12 1
-12 4 0 18 18 31 40 12 22 29 40 36 40 17 0 191 182 225 235 40 62 83 116 89
111 3 -3 -8 -22 -24 -42z m-1664 -17 c0 -2 -17 -19 -37 -38 l-38 -34 34 38
c33 34 41 42 41 34z m-140 -132 c-24 -25 -46 -45 -49 -45 -3 0 15 20 39 45 24
25 46 45 49 45 3 0 -15 -20 -39 -45z m103 -87 c-37 -46 -117 -139 -178 -208
-188 -211 -264 -319 -360 -510 -63 -126 -121 -267 -159 -390 -28 -89 -46 -129
-46 -100 0 20 52 225 80 320 29 96 105 258 163 348 91 141 282 379 358 446 24
21 71 64 104 95 51 47 90 78 103 80 1 1 -28 -36 -65 -81z m-423 -231 c0 -2
-10 -12 -22 -23 l-23 -19 19 23 c18 21 26 27 26 19z m1675 -27 c-3 -5 -16 -15
-28 -21 -21 -10 -21 -9 2 10 25 23 36 27 26 11z m-55 -34 c0 -2 -8 -10 -17
-17 -16 -13 -17 -12 -4 4 13 16 21 21 21 13z m-76 -62 c-21 -15 -45 -31 -51
-36 -7 -6 -13 -8 -13 -4 0 8 81 66 93 66 5 0 -8 -12 -29 -26z m-194 -159 c-7
-8 -17 -15 -23 -15 -6 0 -2 7 9 15 25 19 30 19 14 0z m-160 -149 c0 -2 -8 -10
-17 -17 -16 -13 -17 -12 -4 4 13 16 21 21 21 13z m-116 -115 c-22 -22 -41 -37
-44 -34 -5 5 68 73 78 73 2 0 -13 -18 -34 -39z m-126 -151 c-12 -16 -23 -30
-25 -30 -2 0 4 14 14 30 9 17 21 30 25 30 5 0 -1 -13 -14 -30z m-428 -980 c0
-5 -2 -10 -4 -10 -3 0 -8 5 -11 10 -3 6 -1 10 4 10 6 0 11 -4 11 -10z m-832
-77 c-10 -2 -26 -2 -35 0 -10 3 -2 5 17 5 19 0 27 -2 18 -5z m190 -10 c-10 -2
-28 -2 -40 0 -13 2 -5 4 17 4 22 1 32 -1 23 -4z m149 -9 c-3 -3 -12 -4 -19 -1
-8 3 -5 6 6 6 11 1 17 -2 13 -5z m266 -31 c-18 -2 -48 -2 -65 0 -18 2 -4 4 32
4 36 0 50 -2 33 -4z"/>
<path d="M7635 8725 c-224 -41 -549 -163 -737 -277 -38 -22 -68 -42 -68 -44 0
-1 69 30 153 71 235 114 488 194 727 232 103 16 111 18 75 25 -52 9 -66 8
-150 -7z"/>
<path d="M8200 8590 c41 -6 140 -17 220 -26 143 -15 293 -45 419 -85 72 -22
93 -19 35 6 -150 63 -372 104 -589 110 -133 3 -147 2 -85 -5z"/>
<path d="M5929 7848 c-94 -107 -148 -191 -224 -352 -102 -212 -167 -436 -164
-560 1 -28 4 -40 6 -26 2 14 10 65 19 113 30 184 148 479 267 667 62 99 83
126 149 198 21 23 35 42 29 42 -5 0 -42 -37 -82 -82z"/>
<path d="M9616 7618 c52 -131 78 -255 78 -378 1 -63 -2 -140 -6 -170 -6 -42
-3 -34 13 30 36 148 10 339 -70 515 -38 83 -47 84 -15 3z"/>
<path d="M6816 7602 c-27 -20 -65 -57 -85 -82 -30 -38 -25 -35 39 24 41 39 82
76 90 83 29 26 4 12 -44 -25z"/>
<path d="M6634 7383 c-51 -64 -57 -73 -52 -73 3 0 26 27 51 60 26 33 45 60 43
60 -3 0 -22 -21 -42 -47z"/>
<path d="M5732 6944 c-9 -17 6 -64 20 -64 4 0 10 11 14 25 11 45 -14 74 -34
39z"/>
<path d="M6020 6901 c0 -6 -9 -11 -19 -11 -14 0 -18 -5 -14 -20 4 -15 12 -19
32 -17 30 4 39 28 16 47 -10 8 -15 9 -15 1z"/>
<path d="M6192 6868 c-17 -17 -15 -28 6 -44 23 -18 30 -17 42 5 20 39 -18 69
-48 39z"/>
<path d="M9634 6567 c-75 -161 -197 -341 -315 -467 -99 -105 -103 -114 -11
-25 144 139 280 335 342 494 29 74 20 74 -16 -2z"/>
<path d="M8708 5418 c-217 -216 -326 -329 -402 -419 -17 -20 44 41 136 135 92
94 246 249 344 344 97 94 172 172 166 172 -5 0 -115 -105 -244 -232z"/>
<path d="M8370 4991 c-237 -243 -366 -532 -384 -863 l-6 -93 21 130 c52 333
151 560 337 772 89 101 107 131 32 54z"/>
<path d="M7292 4818 c-25 -42 -75 -158 -95 -223 -42 -133 -57 -248 -55 -437
l1 -183 8 152 c14 288 71 534 166 716 2 4 2 7 -1 7 -2 0 -13 -15 -24 -32z"/>
<path d="M7475 4026 c-18 -13 -18 -14 3 -25 28 -15 32 -14 32 8 0 27 -13 33
-35 17z"/>
<path d="M7826 3984 c-9 -23 -8 -24 14 -24 11 0 20 2 20 4 0 12 -13 36 -20 36
-4 0 -11 -7 -14 -16z"/>
<path d="M7478 3269 c-261 -27 -454 -127 -608 -312 -102 -123 -159 -258 -186
-440 -17 -119 -15 -194 12 -331 47 -235 197 -432 430 -562 84 -47 161 -73 264
-90 584 -95 1103 341 1077 906 -6 127 -37 242 -104 380 -41 83 -59 107 -148
195 -154 152 -308 230 -506 255 -92 11 -119 11 -231 -1z m193 -163 c131 -21
274 -94 383 -195 168 -157 249 -425 194 -646 -13 -54 -81 -187 -129 -251 -46
-63 -149 -151 -199 -171 -19 -8 -56 -25 -82 -39 -26 -14 -50 -24 -53 -24 -15
4 -86 -13 -77 -19 5 -3 -42 -5 -106 -5 -148 2 -263 21 -349 60 -17 8 -36 14
-42 14 -46 0 -221 157 -221 198 0 9 -11 34 -25 54 -14 20 -23 43 -22 50 2 7 2
10 -1 5 -7 -14 -39 37 -47 78 -15 72 -16 79 -22 160 -9 137 34 295 112 415
109 169 281 283 475 315 100 17 111 17 211 1z m-781 -1201 c7 -9 8 -15 2 -15
-5 0 -12 7 -16 15 -3 8 -4 15 -2 15 2 0 9 -7 16 -15z m1219 -75 c-28 -27 -60
-52 -70 -55 -11 -4 -19 -10 -19 -14 0 -4 -30 -21 -67 -36 -38 -15 -72 -32 -77
-37 -6 -4 -18 -8 -28 -8 -9 0 -38 -7 -63 -16 -26 -8 -56 -14 -68 -12 -12 2 11
11 53 21 41 10 93 25 115 33 65 25 188 100 225 139 18 19 38 35 43 35 4 0 -15
-22 -44 -50z m-522 -106 c-3 -3 -12 -4 -19 -1 -8 3 -5 6 6 6 11 1 17 -2 13 -5z
m-382 -14 c3 -6 -1 -7 -9 -4 -18 7 -21 14 -7 14 6 0 13 -4 16 -10z m66 -20
c10 -6 19 -16 19 -23 0 -8 -3 -8 -8 -2 -4 6 -18 16 -32 22 -14 6 -19 12 -12
12 7 1 22 -4 33 -9z m62 -22 c12 -7 33 -11 47 -9 14 1 36 -2 50 -7 24 -9 24
-9 -7 -14 -20 -3 -30 -1 -26 6 4 5 -1 7 -12 3 -19 -8 -85 12 -85 25 0 11 8 10
33 -4z m147 -28 c0 -5 -4 -10 -10 -10 -5 0 -10 5 -10 10 0 6 5 10 10 10 6 0
10 -4 10 -10z m94 1 c3 -5 -12 -11 -34 -13 -48 -4 -54 9 -7 15 17 2 33 5 34 5
1 1 4 -2 7 -7z m96 -1 c-14 -4 -38 -8 -55 -8 -29 1 -29 1 5 8 50 11 83 11 50
0z"/>
<path d="M7555 3046 c-187 -50 -320 -120 -420 -222 -170 -172 -258 -394 -226
-570 6 -38 17 -76 22 -84 8 -11 9 -9 4 10 -17 64 -17 216 0 280 38 146 150
310 280 407 126 95 190 120 440 173 51 11 56 14 35 21 -35 10 -45 9 -135 -15z"/>
<path d="M8114 2638 c13 -29 28 -64 34 -78 l11 -25 0 25 c1 22 -52 130 -64
130 -2 0 6 -24 19 -52z"/>
<path d="M8204 2599 c26 -88 30 -182 12 -274 -2 -11 -6 -37 -10 -57 -4 -20
-16 -58 -27 -83 -28 -64 -18 -67 15 -5 42 81 60 197 46 299 -6 47 -18 96 -26
110 -9 14 -13 19 -10 10z"/>
<path d="M8161 2514 c0 -11 3 -14 6 -6 3 7 2 16 -1 19 -3 4 -6 -2 -5 -13z"/>
<path d="M7953 1995 c-15 -25 -31 -45 -34 -45 -4 0 -25 -25 -48 -55 -23 -30
-39 -55 -36 -55 10 0 80 47 94 64 7 9 19 16 25 16 13 0 48 43 59 73 8 22 -1
47 -18 47 -7 0 -26 -20 -42 -45z"/>
<path d="M7265 1933 c-32 -8 -40 -22 -11 -19 31 4 32 -3 6 -37 -24 -30 -26
-52 -5 -43 8 3 22 9 30 12 8 3 15 1 15 -5 0 -6 6 -11 14 -11 18 0 15 38 -7 78
-10 17 -19 31 -20 31 -1 -1 -11 -3 -22 -6z"/>
<path d="M7629 1928 c0 -2 -2 -14 -5 -27 -6 -33 -35 -80 -53 -84 -12 -4 -12
-5 2 -6 10 0 28 4 39 10 15 8 22 8 28 -1 6 -9 12 -9 30 0 19 10 21 17 15 43
-4 18 -7 40 -7 50 1 12 -7 17 -24 17 -13 0 -24 -1 -25 -2z"/>
</g>
</svg>
